G04 #@! TF.GenerationSoftware,KiCad,Pcbnew,(6.0.7)*
G04 #@! TF.CreationDate,2022-10-12T09:28:52+03:00*
G04 #@! TF.ProjectId,ControlUnitFaceplateSilkscreen,436f6e74-726f-46c5-956e-697446616365,rev?*
G04 #@! TF.SameCoordinates,Original*
G04 #@! TF.FileFunction,Legend,Top*
G04 #@! TF.FilePolarity,Positive*
%FSLAX46Y46*%
G04 Gerber Fmt 4.6, Leading zero omitted, Abs format (unit mm)*
G04 Created by KiCad (PCBNEW (6.0.7)) date 2022-10-12 09:28:52*
%MOMM*%
%LPD*%
G01*
G04 APERTURE LIST*
G04 #@! TA.AperFunction,Profile*
%ADD10C,0.200000*%
G04 #@! TD*
G04 APERTURE END LIST*
D10*
X186596600Y-111374600D02*
X186596600Y-66374600D01*
X186596600Y-66374600D02*
X114596600Y-66374600D01*
X114596600Y-111374600D02*
X186596600Y-111374600D01*
X134096600Y-88874600D02*
G75*
G03*
X134096600Y-88874600I-1500000J0D01*
G01*
X173596600Y-88874600D02*
G75*
G03*
X173596600Y-88874600I-5000000J0D01*
G01*
X114596600Y-66374600D02*
X114596600Y-111374600D01*
G36*
X133900808Y-70575402D02*
G01*
X135631470Y-70575402D01*
X135631470Y-68870191D01*
X136522251Y-68870191D01*
X136522251Y-73222295D01*
X135631470Y-73222295D01*
X135631470Y-71313478D01*
X133900808Y-71313478D01*
X133900808Y-73222295D01*
X133035478Y-73222295D01*
X133035478Y-68870191D01*
X133900808Y-68870191D01*
X133900808Y-70575402D01*
G37*
G36*
X146066339Y-73222295D02*
G01*
X145175558Y-73222295D01*
X145175558Y-68870191D01*
X146066339Y-68870191D01*
X146066339Y-73222295D01*
G37*
G36*
X163498415Y-88740237D02*
G01*
X163493586Y-88656164D01*
X163486541Y-88605064D01*
X163481119Y-88594658D01*
X163442688Y-88591993D01*
X163357964Y-88584226D01*
X163230523Y-88571744D01*
X163063943Y-88554932D01*
X162861804Y-88534177D01*
X162627681Y-88509863D01*
X162365154Y-88482378D01*
X162077800Y-88452106D01*
X161769196Y-88419433D01*
X161442922Y-88384746D01*
X161102554Y-88348430D01*
X160751671Y-88310871D01*
X160393851Y-88272455D01*
X160032670Y-88233567D01*
X159671708Y-88194594D01*
X159314542Y-88155921D01*
X158964750Y-88117934D01*
X158625910Y-88081018D01*
X158301599Y-88045561D01*
X157995396Y-88011946D01*
X157710879Y-87980561D01*
X157451624Y-87951791D01*
X157221211Y-87926022D01*
X157023217Y-87903640D01*
X156861220Y-87885030D01*
X156738798Y-87870578D01*
X156659528Y-87860670D01*
X156626989Y-87855692D01*
X156626485Y-87855505D01*
X156551690Y-87790062D01*
X156511650Y-87701333D01*
X156505220Y-87602115D01*
X156531251Y-87505205D01*
X156588596Y-87423399D01*
X156669848Y-87371777D01*
X156701665Y-87370379D01*
X156777087Y-87374000D01*
X156896741Y-87382701D01*
X157061260Y-87396544D01*
X157271271Y-87415588D01*
X157527405Y-87439896D01*
X157830292Y-87469527D01*
X158180561Y-87504542D01*
X158578843Y-87545003D01*
X159025767Y-87590970D01*
X159521962Y-87642503D01*
X160068060Y-87699665D01*
X160114459Y-87704540D01*
X160524683Y-87747619D01*
X160921170Y-87789204D01*
X161300952Y-87828987D01*
X161661058Y-87866659D01*
X161998519Y-87901910D01*
X162310365Y-87934431D01*
X162593626Y-87963914D01*
X162845332Y-87990050D01*
X163062515Y-88012529D01*
X163242204Y-88031043D01*
X163381429Y-88045282D01*
X163477222Y-88054939D01*
X163526611Y-88059703D01*
X163532805Y-88060171D01*
X163556242Y-88034823D01*
X163582079Y-87959060D01*
X163610174Y-87833306D01*
X163611376Y-87827065D01*
X163676171Y-87551748D01*
X163767024Y-87254999D01*
X163877417Y-86954496D01*
X164000833Y-86667921D01*
X164130754Y-86412952D01*
X164136303Y-86403115D01*
X164182922Y-86318853D01*
X164216780Y-86253803D01*
X164232413Y-86218608D01*
X164232631Y-86215350D01*
X164210919Y-86200626D01*
X164150263Y-86159644D01*
X164053923Y-86094604D01*
X163925160Y-86007706D01*
X163767232Y-85901150D01*
X163583401Y-85777134D01*
X163376927Y-85637858D01*
X163151069Y-85485522D01*
X162909088Y-85322325D01*
X162654244Y-85150466D01*
X162622151Y-85128825D01*
X162132395Y-84798581D01*
X161683076Y-84495615D01*
X161272445Y-84218721D01*
X160898754Y-83966690D01*
X160560256Y-83738316D01*
X160255203Y-83532389D01*
X159981847Y-83347704D01*
X159738439Y-83183051D01*
X159523232Y-83037224D01*
X159334478Y-82909015D01*
X159170428Y-82797216D01*
X159029336Y-82700619D01*
X158909453Y-82618018D01*
X158809031Y-82548204D01*
X158726322Y-82489969D01*
X158659578Y-82442107D01*
X158607051Y-82403410D01*
X158566994Y-82372669D01*
X158537658Y-82348677D01*
X158517295Y-82330228D01*
X158504158Y-82316112D01*
X158496499Y-82305123D01*
X158492569Y-82296053D01*
X158490621Y-82287694D01*
X158488906Y-82278838D01*
X158486986Y-82271930D01*
X158477191Y-82167187D01*
X158509324Y-82063934D01*
X158577020Y-81979755D01*
X158598444Y-81963954D01*
X158618856Y-81950389D01*
X158638346Y-81938870D01*
X158659076Y-81930717D01*
X158683206Y-81927254D01*
X158712897Y-81929801D01*
X158750309Y-81939680D01*
X158797603Y-81958213D01*
X158856939Y-81986720D01*
X158930478Y-82026523D01*
X159020381Y-82078945D01*
X159128808Y-82145305D01*
X159257920Y-82226927D01*
X159409877Y-82325131D01*
X159586840Y-82441239D01*
X159790969Y-82576572D01*
X160024425Y-82732452D01*
X160289369Y-82910200D01*
X160587962Y-83111138D01*
X160922363Y-83336588D01*
X161294733Y-83587870D01*
X161693193Y-83856830D01*
X164530969Y-85772255D01*
X164604094Y-85688207D01*
X164806956Y-85459993D01*
X164989742Y-85265964D01*
X165160944Y-85098179D01*
X165329054Y-84948693D01*
X165502564Y-84809565D01*
X165688911Y-84673592D01*
X165786708Y-84605045D01*
X165871533Y-84545592D01*
X165933214Y-84502363D01*
X165959423Y-84483997D01*
X165961223Y-84473584D01*
X165954699Y-84448867D01*
X165938808Y-84407825D01*
X165912507Y-84348435D01*
X165874755Y-84268678D01*
X165824509Y-84166532D01*
X165760728Y-84039975D01*
X165682369Y-83886987D01*
X165588389Y-83705547D01*
X165477747Y-83493633D01*
X165349401Y-83249225D01*
X165202307Y-82970300D01*
X165035425Y-82654839D01*
X164847712Y-82300819D01*
X164638125Y-81906220D01*
X164405623Y-81469021D01*
X164378031Y-81417163D01*
X164146944Y-80982756D01*
X163938706Y-80590986D01*
X163752164Y-80239604D01*
X163586164Y-79926361D01*
X163439552Y-79649007D01*
X163311175Y-79405292D01*
X163199879Y-79192967D01*
X163104510Y-79009783D01*
X163023915Y-78853489D01*
X162956941Y-78721836D01*
X162902432Y-78612575D01*
X162859237Y-78523456D01*
X162826202Y-78452230D01*
X162802171Y-78396646D01*
X162785994Y-78354456D01*
X162776514Y-78323410D01*
X162772579Y-78301258D01*
X162772832Y-78287025D01*
X162808349Y-78189603D01*
X162875584Y-78115879D01*
X162962716Y-78070130D01*
X163057922Y-78056633D01*
X163149382Y-78079664D01*
X163212533Y-78127957D01*
X163231970Y-78158659D01*
X163273771Y-78231645D01*
X163336479Y-78344215D01*
X163418637Y-78493670D01*
X163518787Y-78677309D01*
X163635472Y-78892433D01*
X163767234Y-79136343D01*
X163912615Y-79406338D01*
X164070159Y-79699719D01*
X164238407Y-80013787D01*
X164415902Y-80345842D01*
X164601187Y-80693184D01*
X164792804Y-81053113D01*
X164857982Y-81175702D01*
X165050732Y-81538312D01*
X165237052Y-81888737D01*
X165415529Y-82224323D01*
X165584752Y-82542422D01*
X165743307Y-82840380D01*
X165889783Y-83115546D01*
X166022768Y-83365269D01*
X166140850Y-83586898D01*
X166242617Y-83777781D01*
X166326656Y-83935267D01*
X166391556Y-84056704D01*
X166435904Y-84139440D01*
X166458289Y-84180825D01*
X166460693Y-84185082D01*
X166485312Y-84200114D01*
X166532014Y-84188667D01*
X166578771Y-84166691D01*
X166715133Y-84106298D01*
X166890313Y-84042577D01*
X167092645Y-83978678D01*
X167310459Y-83917749D01*
X167532086Y-83862937D01*
X167745859Y-83817391D01*
X167940107Y-83784259D01*
X168043193Y-83771573D01*
X168145563Y-83760659D01*
X168243532Y-83749050D01*
X168291339Y-83742708D01*
X168386780Y-83729044D01*
X168386780Y-76806957D01*
X168461175Y-76732562D01*
X168551388Y-76674644D01*
X168656010Y-76656737D01*
X168758096Y-76680530D01*
X168791020Y-76699670D01*
X168809255Y-76711889D01*
X168825706Y-76723411D01*
X168840464Y-76736784D01*
X168853622Y-76754561D01*
X168865271Y-76779290D01*
X168875502Y-76813522D01*
X168884407Y-76859808D01*
X168892079Y-76920697D01*
X168898609Y-76998741D01*
X168904087Y-77096489D01*
X168908608Y-77216491D01*
X168912261Y-77361299D01*
X168915138Y-77533462D01*
X168917332Y-77735530D01*
X168918934Y-77970054D01*
X168920036Y-78239585D01*
X168920729Y-78546672D01*
X168921106Y-78893866D01*
X168921257Y-79283717D01*
X168921275Y-79718775D01*
X168921251Y-80201591D01*
X168921249Y-80321126D01*
X168921249Y-83731211D01*
X169003965Y-83743263D01*
X169065403Y-83751494D01*
X169161328Y-83763539D01*
X169275657Y-83777397D01*
X169336392Y-83784581D01*
X169715035Y-83847930D01*
X170113983Y-83950706D01*
X170524500Y-84090530D01*
X170666182Y-84146506D01*
X170820433Y-84209605D01*
X172409569Y-81216501D01*
X172626878Y-80807717D01*
X172833467Y-80420119D01*
X173028227Y-80055750D01*
X173210049Y-79716655D01*
X173377824Y-79404877D01*
X173530443Y-79122460D01*
X173666796Y-78871447D01*
X173785775Y-78653881D01*
X173886270Y-78471806D01*
X173967173Y-78327266D01*
X174027375Y-78222305D01*
X174065765Y-78158965D01*
X174078874Y-78140682D01*
X174145496Y-78084059D01*
X174212018Y-78060978D01*
X174257031Y-78058533D01*
X174366996Y-78082087D01*
X174453386Y-78145249D01*
X174507093Y-78238823D01*
X174520448Y-78324468D01*
X174508596Y-78355568D01*
X174473776Y-78429398D01*
X174417092Y-78543838D01*
X174339647Y-78696768D01*
X174242544Y-78886067D01*
X174126887Y-79109615D01*
X173993779Y-79365292D01*
X173844324Y-79650979D01*
X173679625Y-79964553D01*
X173500786Y-80303896D01*
X173308910Y-80666887D01*
X173105100Y-81051406D01*
X172917341Y-81404800D01*
X172723472Y-81769377D01*
X172536213Y-82121663D01*
X172356954Y-82459036D01*
X172187088Y-82778873D01*
X172028002Y-83078551D01*
X171881089Y-83355449D01*
X171747738Y-83606943D01*
X171629340Y-83830410D01*
X171527285Y-84023229D01*
X171442963Y-84182777D01*
X171377765Y-84306430D01*
X171333082Y-84391567D01*
X171310303Y-84435565D01*
X171307571Y-84441235D01*
X171324483Y-84463928D01*
X171375411Y-84507529D01*
X171451772Y-84565089D01*
X171517241Y-84610973D01*
X171813244Y-84830982D01*
X172110045Y-85085864D01*
X172392844Y-85362041D01*
X172646845Y-85645935D01*
X172652295Y-85652526D01*
X172755235Y-85777245D01*
X175565747Y-83881348D01*
X175907564Y-83650826D01*
X176238292Y-83427899D01*
X176555420Y-83214254D01*
X176856435Y-83011577D01*
X177138828Y-82821555D01*
X177400085Y-82645877D01*
X177637697Y-82486228D01*
X177849152Y-82344296D01*
X178031937Y-82221768D01*
X178183543Y-82120330D01*
X178301458Y-82041671D01*
X178383170Y-81987477D01*
X178426168Y-81959434D01*
X178431851Y-81955977D01*
X178536846Y-81925175D01*
X178639067Y-81945026D01*
X178737386Y-82015309D01*
X178738373Y-82016293D01*
X178792570Y-82075880D01*
X178816131Y-82124188D01*
X178817511Y-82182539D01*
X178814468Y-82208173D01*
X178798028Y-82283420D01*
X178774664Y-82340516D01*
X178769179Y-82348335D01*
X178744572Y-82366972D01*
X178680234Y-82412332D01*
X178578660Y-82482716D01*
X178442349Y-82576426D01*
X178273795Y-82691762D01*
X178075497Y-82827028D01*
X177849950Y-82980523D01*
X177599652Y-83150550D01*
X177327098Y-83335410D01*
X177034786Y-83533405D01*
X176725213Y-83742835D01*
X176400874Y-83962003D01*
X176064267Y-84189210D01*
X175948203Y-84267495D01*
X175607752Y-84497110D01*
X175278498Y-84719217D01*
X174962954Y-84932119D01*
X174663636Y-85134116D01*
X174383058Y-85323511D01*
X174123734Y-85498606D01*
X173888180Y-85657700D01*
X173678910Y-85799097D01*
X173498437Y-85921098D01*
X173349278Y-86022004D01*
X173233946Y-86100116D01*
X173154956Y-86153738D01*
X173114823Y-86181169D01*
X173110520Y-86184194D01*
X173093372Y-86199798D01*
X173085872Y-86220262D01*
X173090438Y-86252879D01*
X173109488Y-86304940D01*
X173145440Y-86383738D01*
X173200712Y-86496563D01*
X173240634Y-86576587D01*
X173372566Y-86864124D01*
X173491806Y-87170168D01*
X173592029Y-87476761D01*
X173666912Y-87765942D01*
X173677945Y-87818388D01*
X173706638Y-87941957D01*
X173733741Y-88021522D01*
X173758125Y-88053818D01*
X173759596Y-88054204D01*
X173788775Y-88052404D01*
X173865601Y-88045543D01*
X173987102Y-88033925D01*
X174150307Y-88017853D01*
X174352244Y-87997633D01*
X174589942Y-87973567D01*
X174860429Y-87945959D01*
X175160734Y-87915112D01*
X175487884Y-87881332D01*
X175838910Y-87844920D01*
X176210838Y-87806182D01*
X176600698Y-87765420D01*
X177005519Y-87722939D01*
X177178999Y-87704688D01*
X177661277Y-87653927D01*
X178095531Y-87608279D01*
X178484354Y-87567512D01*
X178830344Y-87531393D01*
X179136095Y-87499688D01*
X179404202Y-87472163D01*
X179637261Y-87448587D01*
X179837867Y-87428725D01*
X180008615Y-87412344D01*
X180152101Y-87399212D01*
X180270920Y-87389094D01*
X180367668Y-87381759D01*
X180444940Y-87376971D01*
X180505330Y-87374499D01*
X180551435Y-87374109D01*
X180585850Y-87375569D01*
X180611170Y-87378643D01*
X180629990Y-87383100D01*
X180644906Y-87388707D01*
X180653047Y-87392519D01*
X180734497Y-87456299D01*
X180784895Y-87544531D01*
X180798315Y-87641988D01*
X180778833Y-87715573D01*
X180768869Y-87737607D01*
X180760057Y-87757457D01*
X180749862Y-87775498D01*
X180735751Y-87792101D01*
X180715190Y-87807638D01*
X180685645Y-87822484D01*
X180644582Y-87837010D01*
X180589466Y-87851590D01*
X180517765Y-87866596D01*
X180426944Y-87882400D01*
X180314470Y-87899376D01*
X180177808Y-87917896D01*
X180014424Y-87938334D01*
X179821785Y-87961061D01*
X179597356Y-87986450D01*
X179338604Y-88014875D01*
X179042995Y-88046708D01*
X178707995Y-88082322D01*
X178331070Y-88122089D01*
X177909686Y-88166382D01*
X177441309Y-88215574D01*
X177225873Y-88238216D01*
X176815454Y-88281346D01*
X176418863Y-88322983D01*
X176039059Y-88362817D01*
X175679001Y-88400541D01*
X175341648Y-88435845D01*
X175029958Y-88468421D01*
X174746892Y-88497960D01*
X174495407Y-88524154D01*
X174278462Y-88546694D01*
X174099017Y-88565271D01*
X173960029Y-88579577D01*
X173864459Y-88589303D01*
X173815265Y-88594140D01*
X173809089Y-88594640D01*
X173796700Y-88619601D01*
X173788016Y-88692765D01*
X173783257Y-88811553D01*
X173782371Y-88911473D01*
X173773331Y-89177580D01*
X173747722Y-89462122D01*
X173707808Y-89750626D01*
X173655857Y-90028621D01*
X173594134Y-90281636D01*
X173541474Y-90450043D01*
X173507566Y-90546149D01*
X173829488Y-90676115D01*
X174542895Y-90964166D01*
X175209452Y-91233372D01*
X175829533Y-91483885D01*
X176403513Y-91715855D01*
X176931765Y-91929436D01*
X177414664Y-92124778D01*
X177852584Y-92302033D01*
X178245900Y-92461353D01*
X178594984Y-92602890D01*
X178900212Y-92726795D01*
X179161958Y-92833220D01*
X179380595Y-92922316D01*
X179556499Y-92994236D01*
X179690042Y-93049130D01*
X179781600Y-93087152D01*
X179831547Y-93108451D01*
X179840569Y-93112632D01*
X179928573Y-93181256D01*
X179977634Y-93268125D01*
X179990203Y-93362734D01*
X179968730Y-93454577D01*
X179915666Y-93533151D01*
X179833462Y-93587949D01*
X179724902Y-93608468D01*
X179690231Y-93599113D01*
X179612599Y-93572124D01*
X179496165Y-93529114D01*
X179345089Y-93471694D01*
X179163534Y-93401476D01*
X178955659Y-93320074D01*
X178725624Y-93229100D01*
X178477592Y-93130165D01*
X178215721Y-93024882D01*
X178139319Y-92994014D01*
X177828550Y-92868331D01*
X177480782Y-92727705D01*
X177106213Y-92576259D01*
X176715043Y-92418117D01*
X176317468Y-92257400D01*
X175923688Y-92098231D01*
X175543901Y-91944733D01*
X175188304Y-91801029D01*
X174966353Y-91711345D01*
X173312560Y-91043128D01*
X173190807Y-91273633D01*
X172953874Y-91677739D01*
X172685309Y-92049690D01*
X172376164Y-92401741D01*
X172339325Y-92439749D01*
X172150611Y-92632654D01*
X174366291Y-95272896D01*
X174680402Y-95647242D01*
X174963381Y-95984629D01*
X175216850Y-96287065D01*
X175442429Y-96556556D01*
X175641740Y-96795108D01*
X175816404Y-97004728D01*
X175968043Y-97187423D01*
X176098278Y-97345198D01*
X176208730Y-97480060D01*
X176301021Y-97594016D01*
X176376771Y-97689072D01*
X176437603Y-97767234D01*
X176485137Y-97830509D01*
X176520994Y-97880903D01*
X176546797Y-97920423D01*
X176564166Y-97951075D01*
X176574723Y-97974866D01*
X176580089Y-97993801D01*
X176581885Y-98009889D01*
X176581971Y-98014881D01*
X176569725Y-98123880D01*
X176528531Y-98199665D01*
X176455226Y-98252994D01*
X176349471Y-98287908D01*
X176251989Y-98274840D01*
X176179356Y-98234169D01*
X176153539Y-98207914D01*
X176097100Y-98144930D01*
X176012033Y-98047566D01*
X175900333Y-97918171D01*
X175763996Y-97759093D01*
X175605015Y-97572682D01*
X175425386Y-97361287D01*
X175227105Y-97127255D01*
X175012165Y-96872937D01*
X174782562Y-96600680D01*
X174540291Y-96312835D01*
X174287347Y-96011749D01*
X174025725Y-95699772D01*
X173947484Y-95606364D01*
X173684555Y-95292501D01*
X173430375Y-94989307D01*
X173186884Y-94699085D01*
X172956022Y-94424140D01*
X172739730Y-94166774D01*
X172539948Y-93929291D01*
X172358616Y-93713994D01*
X172197676Y-93523188D01*
X172059067Y-93359174D01*
X171944731Y-93224258D01*
X171856607Y-93120742D01*
X171796636Y-93050929D01*
X171766759Y-93017124D01*
X171763872Y-93014288D01*
X171727250Y-93018258D01*
X171653635Y-93053545D01*
X171545239Y-93119003D01*
X171482888Y-93159877D01*
X171145459Y-93363462D01*
X170773870Y-93548281D01*
X170383374Y-93707772D01*
X169989230Y-93835375D01*
X169797342Y-93884751D01*
X169313733Y-93972037D01*
X168822682Y-94010806D01*
X168329033Y-94001937D01*
X167837629Y-93946310D01*
X167353313Y-93844804D01*
X166880927Y-93698300D01*
X166425316Y-93507677D01*
X165991321Y-93273814D01*
X165814086Y-93161199D01*
X165543965Y-92981165D01*
X163346618Y-95599990D01*
X163080424Y-95917056D01*
X162822701Y-96223668D01*
X162575395Y-96517528D01*
X162340452Y-96796340D01*
X162119817Y-97057806D01*
X161915436Y-97299630D01*
X161729255Y-97519513D01*
X161563221Y-97715160D01*
X161419279Y-97884272D01*
X161299375Y-98024553D01*
X161205455Y-98133705D01*
X161139465Y-98209432D01*
X161103351Y-98249436D01*
X161097432Y-98255125D01*
X161012648Y-98286518D01*
X160912602Y-98282835D01*
X160823434Y-98247859D01*
X160746329Y-98173175D01*
X160706217Y-98076293D01*
X160706333Y-97972046D01*
X160743966Y-97883520D01*
X160764309Y-97858139D01*
X160814995Y-97796601D01*
X160893650Y-97701740D01*
X160997900Y-97576393D01*
X161125372Y-97423396D01*
X161273690Y-97245584D01*
X161440480Y-97045795D01*
X161623369Y-96826863D01*
X161819982Y-96591625D01*
X162027945Y-96342916D01*
X162244884Y-96083574D01*
X162468425Y-95816433D01*
X162696193Y-95544329D01*
X162925814Y-95270100D01*
X163154914Y-94996580D01*
X163381119Y-94726606D01*
X163602055Y-94463014D01*
X163815347Y-94208640D01*
X164018621Y-93966319D01*
X164209504Y-93738888D01*
X164385621Y-93529182D01*
X164544597Y-93340038D01*
X164684059Y-93174292D01*
X164801632Y-93034780D01*
X164894943Y-92924337D01*
X164945890Y-92864270D01*
X165135062Y-92641815D01*
X164923797Y-92418879D01*
X164728262Y-92201569D01*
X164549320Y-91977995D01*
X164379112Y-91737123D01*
X164209780Y-91467918D01*
X164056761Y-91201545D01*
X163971049Y-91047028D01*
X160802411Y-92327608D01*
X160377674Y-92499021D01*
X159973975Y-92661466D01*
X159593516Y-92814074D01*
X159238502Y-92955976D01*
X158911135Y-93086304D01*
X158613617Y-93204191D01*
X158348153Y-93308767D01*
X158116944Y-93399165D01*
X157922195Y-93474515D01*
X157766107Y-93533951D01*
X157650884Y-93576603D01*
X157578729Y-93601604D01*
X157553012Y-93608328D01*
X157463867Y-93586187D01*
X157380183Y-93529062D01*
X157319790Y-93451344D01*
X157303340Y-93406809D01*
X157303317Y-93324680D01*
X157329277Y-93235760D01*
X157373042Y-93161225D01*
X157410871Y-93128417D01*
X157440814Y-93115429D01*
X157514734Y-93084703D01*
X157629405Y-93037551D01*
X157781604Y-92975286D01*
X157968103Y-92899218D01*
X158185678Y-92810661D01*
X158431103Y-92710926D01*
X158701152Y-92601325D01*
X158992602Y-92483171D01*
X159302225Y-92357775D01*
X159626796Y-92226449D01*
X159849949Y-92136229D01*
X160353740Y-91932607D01*
X160812449Y-91747200D01*
X161228186Y-91579153D01*
X161603064Y-91427610D01*
X161939194Y-91291714D01*
X162238688Y-91170610D01*
X162503657Y-91063441D01*
X162736213Y-90969352D01*
X162938467Y-90887487D01*
X163112530Y-90816989D01*
X163260515Y-90757003D01*
X163384533Y-90706673D01*
X163486695Y-90665142D01*
X163569113Y-90631555D01*
X163633898Y-90605055D01*
X163683162Y-90584787D01*
X163719017Y-90569895D01*
X163743573Y-90559523D01*
X163758943Y-90552814D01*
X163767238Y-90548913D01*
X163770569Y-90546964D01*
X163770804Y-90546755D01*
X163767136Y-90520937D01*
X163751120Y-90458481D01*
X163725879Y-90371239D01*
X163716311Y-90339854D01*
X163632600Y-90020617D01*
X163567143Y-89671154D01*
X163522578Y-89309688D01*
X163501540Y-88954438D01*
X163500954Y-88906968D01*
X163784426Y-88906968D01*
X163787998Y-89146229D01*
X163799401Y-89364511D01*
X163817691Y-89539303D01*
X163847329Y-89717890D01*
X163886252Y-89908110D01*
X163931519Y-90098767D01*
X163980190Y-90278663D01*
X164029325Y-90436601D01*
X164075981Y-90561383D01*
X164099172Y-90611156D01*
X164134875Y-90686615D01*
X164157608Y-90748019D01*
X164161931Y-90770457D01*
X164174195Y-90813368D01*
X164207795Y-90890918D01*
X164257939Y-90994063D01*
X164319833Y-91113759D01*
X164388688Y-91240960D01*
X164459710Y-91366622D01*
X164528109Y-91481699D01*
X164589092Y-91577147D01*
X164590057Y-91578577D01*
X164842598Y-91916392D01*
X165134317Y-92243733D01*
X165453505Y-92548810D01*
X165788455Y-92819835D01*
X165905866Y-92903520D01*
X166280953Y-93133696D01*
X166688742Y-93333055D01*
X167118568Y-93497426D01*
X167559766Y-93622642D01*
X167928664Y-93694108D01*
X168090207Y-93712206D01*
X168288078Y-93724485D01*
X168508034Y-93730912D01*
X168735832Y-93731456D01*
X168957229Y-93726084D01*
X169157980Y-93714763D01*
X169323844Y-93697462D01*
X169325153Y-93697277D01*
X169797672Y-93605289D01*
X170262995Y-93465948D01*
X170713124Y-93282303D01*
X171140059Y-93057406D01*
X171350903Y-92924729D01*
X171647027Y-92706330D01*
X171941874Y-92450205D01*
X172223736Y-92168174D01*
X172480909Y-91872060D01*
X172701687Y-91573683D01*
X172727840Y-91534219D01*
X172790531Y-91433524D01*
X172858904Y-91315963D01*
X172928126Y-91190802D01*
X172993368Y-91067304D01*
X173049798Y-90954737D01*
X173092585Y-90862364D01*
X173116899Y-90799451D01*
X173120648Y-90780834D01*
X173132008Y-90739141D01*
X173161111Y-90671422D01*
X173185055Y-90623849D01*
X173227467Y-90527245D01*
X173274587Y-90391656D01*
X173323364Y-90228407D01*
X173370748Y-90048819D01*
X173413687Y-89864215D01*
X173449130Y-89685919D01*
X173466754Y-89578428D01*
X173494242Y-89325664D01*
X173508531Y-89042624D01*
X173509380Y-88748257D01*
X173496547Y-88461510D01*
X173482921Y-88307843D01*
X173452621Y-88095376D01*
X173406374Y-87858293D01*
X173348480Y-87614328D01*
X173283241Y-87381216D01*
X173214957Y-87176692D01*
X173197563Y-87131213D01*
X173144582Y-87005029D01*
X173079017Y-86860752D01*
X173007119Y-86711034D01*
X172935142Y-86568528D01*
X172869338Y-86445887D01*
X172815958Y-86355765D01*
X172809682Y-86346239D01*
X172770299Y-86287666D01*
X172711881Y-86200855D01*
X172643837Y-86099784D01*
X172603351Y-86039668D01*
X172508804Y-85911696D01*
X172384698Y-85761902D01*
X172240840Y-85600739D01*
X172087034Y-85438659D01*
X171933084Y-85286114D01*
X171788795Y-85153555D01*
X171709494Y-85086799D01*
X171316532Y-84802731D01*
X170894149Y-84557554D01*
X170448627Y-84353994D01*
X169986245Y-84194775D01*
X169513284Y-84082624D01*
X169325153Y-84051923D01*
X169136922Y-84032102D01*
X168914952Y-84019839D01*
X168675130Y-84015123D01*
X168433342Y-84017945D01*
X168205475Y-84028294D01*
X168007417Y-84046160D01*
X167957381Y-84052810D01*
X167467918Y-84149253D01*
X166995423Y-84293020D01*
X166542503Y-84482601D01*
X166111766Y-84716487D01*
X165705819Y-84993167D01*
X165327271Y-85311131D01*
X164978730Y-85668869D01*
X164802829Y-85879424D01*
X164736252Y-85965513D01*
X164683630Y-86037207D01*
X164651799Y-86084979D01*
X164645498Y-86098619D01*
X164630869Y-86128806D01*
X164593617Y-86182998D01*
X164567315Y-86217284D01*
X164452724Y-86382703D01*
X164336664Y-86589289D01*
X164222922Y-86827579D01*
X164115285Y-87088110D01*
X164017538Y-87361419D01*
X163933470Y-87638043D01*
X163866867Y-87908519D01*
X163843559Y-88025942D01*
X163818251Y-88206216D01*
X163799797Y-88422672D01*
X163788440Y-88661019D01*
X163784426Y-88906968D01*
X163500954Y-88906968D01*
X163500207Y-88846452D01*
X163498415Y-88740237D01*
G37*
G36*
X129370548Y-83249951D02*
G01*
X130821249Y-83249951D01*
X130821249Y-83733518D01*
X128759726Y-83733518D01*
X128759726Y-80857566D01*
X129370548Y-80857566D01*
X129370548Y-83249951D01*
G37*
G36*
X171295317Y-101674482D02*
G01*
X171299863Y-101662782D01*
X171858738Y-100224261D01*
X172176132Y-100231344D01*
X172493525Y-100238428D01*
X173651531Y-103114380D01*
X173355758Y-103121592D01*
X173236394Y-103123547D01*
X173134881Y-103123427D01*
X173062531Y-103121361D01*
X173031457Y-103117858D01*
X173012321Y-103091214D01*
X172979891Y-103025895D01*
X172938330Y-102931042D01*
X172891803Y-102815794D01*
X172880371Y-102786146D01*
X172757812Y-102465382D01*
X171597251Y-102465382D01*
X171547439Y-102598999D01*
X171513681Y-102690847D01*
X171471768Y-102806689D01*
X171430393Y-102922488D01*
X171427781Y-102929861D01*
X171357935Y-103127105D01*
X169969626Y-103127105D01*
X169594688Y-102484470D01*
X169497927Y-102319284D01*
X169408282Y-102167498D01*
X169329263Y-102034960D01*
X169264384Y-101927518D01*
X169217156Y-101851022D01*
X169191092Y-101811319D01*
X169188379Y-101807917D01*
X169169247Y-101799858D01*
X169138877Y-101811985D01*
X169091537Y-101848734D01*
X169021497Y-101914539D01*
X168925281Y-102011525D01*
X168693554Y-102249049D01*
X168692872Y-102688077D01*
X168692191Y-103127105D01*
X168106820Y-103127105D01*
X168106820Y-100225702D01*
X168691317Y-100225702D01*
X168698117Y-100857509D01*
X168704916Y-101489315D01*
X169285766Y-100857509D01*
X169866615Y-100225702D01*
X170657402Y-100225702D01*
X170117691Y-100784768D01*
X169577980Y-101343833D01*
X169663192Y-101479560D01*
X169727108Y-101580427D01*
X169807201Y-101705345D01*
X169899874Y-101848838D01*
X170001530Y-102005430D01*
X170108573Y-102169644D01*
X170217406Y-102336003D01*
X170324434Y-102499033D01*
X170426059Y-102653255D01*
X170518685Y-102793194D01*
X170598715Y-102913373D01*
X170662554Y-103008315D01*
X170706604Y-103072545D01*
X170727270Y-103100586D01*
X170728263Y-103101370D01*
X170739491Y-103078299D01*
X170767448Y-103011833D01*
X170810513Y-102906055D01*
X170867064Y-102765048D01*
X170935478Y-102592894D01*
X171014132Y-102393678D01*
X171101405Y-102171482D01*
X171193228Y-101936646D01*
X171797201Y-101936646D01*
X171821183Y-101943513D01*
X171887259Y-101949339D01*
X171986624Y-101953670D01*
X172110475Y-101956048D01*
X172178324Y-101956364D01*
X172559448Y-101956364D01*
X172482598Y-101746394D01*
X172402078Y-101527512D01*
X172330957Y-101336428D01*
X172270639Y-101176797D01*
X172222527Y-101052274D01*
X172188024Y-100966514D01*
X172168533Y-100923173D01*
X172164828Y-100918576D01*
X172153641Y-100944380D01*
X172128624Y-101009516D01*
X172092905Y-101105322D01*
X172049611Y-101223136D01*
X172001870Y-101354296D01*
X171952811Y-101490140D01*
X171905561Y-101622006D01*
X171863248Y-101741232D01*
X171829000Y-101839156D01*
X171805944Y-101907116D01*
X171797209Y-101936451D01*
X171797201Y-101936646D01*
X171193228Y-101936646D01*
X171195675Y-101930389D01*
X171295317Y-101674482D01*
G37*
G36*
X141216361Y-71023940D02*
G01*
X141220065Y-71014430D01*
X142055049Y-68870191D01*
X142527277Y-68870556D01*
X142999506Y-68870921D01*
X144737834Y-73222295D01*
X143780037Y-73222295D01*
X143659652Y-72910522D01*
X143606492Y-72773058D01*
X143552382Y-72633500D01*
X143503886Y-72508754D01*
X143469473Y-72420592D01*
X143399679Y-72242436D01*
X141653888Y-72242436D01*
X141476361Y-72732366D01*
X141298834Y-73222295D01*
X140829363Y-73222295D01*
X140657483Y-73221554D01*
X140531206Y-73219084D01*
X140445253Y-73214519D01*
X140394344Y-73207491D01*
X140373198Y-73197631D01*
X140372486Y-73190482D01*
X140383384Y-73162574D01*
X140411425Y-73090639D01*
X140455282Y-72978082D01*
X140513630Y-72828310D01*
X140585141Y-72644728D01*
X140668490Y-72430741D01*
X140762349Y-72189756D01*
X140865392Y-71925177D01*
X140976293Y-71640411D01*
X141041665Y-71472546D01*
X141943207Y-71472546D01*
X141967498Y-71477976D01*
X142035582Y-71482805D01*
X142140353Y-71486802D01*
X142274701Y-71489734D01*
X142431521Y-71491370D01*
X142528445Y-71491634D01*
X143113597Y-71491634D01*
X143054031Y-71332566D01*
X143028947Y-71265286D01*
X142989317Y-71158632D01*
X142938246Y-71020973D01*
X142878837Y-70860679D01*
X142814193Y-70686118D01*
X142756898Y-70531288D01*
X142694068Y-70362108D01*
X142637127Y-70210056D01*
X142588395Y-70081226D01*
X142550191Y-69981710D01*
X142524836Y-69917599D01*
X142514649Y-69894988D01*
X142514601Y-69895015D01*
X142503956Y-69920929D01*
X142478666Y-69987816D01*
X142441232Y-70088770D01*
X142394156Y-70216885D01*
X142339940Y-70365256D01*
X142281084Y-70526975D01*
X142220091Y-70695137D01*
X142159461Y-70862836D01*
X142101696Y-71023166D01*
X142049298Y-71169222D01*
X142004768Y-71294096D01*
X141970606Y-71390883D01*
X141949316Y-71452678D01*
X141943207Y-71472546D01*
X141041665Y-71472546D01*
X141093725Y-71338864D01*
X141216361Y-71023940D01*
G37*
G36*
X147281784Y-108646240D02*
G01*
X147399322Y-108706306D01*
X147422725Y-108725523D01*
X147504315Y-108798367D01*
X147512285Y-109258628D01*
X147520254Y-109718889D01*
X147237081Y-109718889D01*
X147237081Y-109342788D01*
X147235545Y-109172730D01*
X147229374Y-109046977D01*
X147216225Y-108958983D01*
X147193755Y-108902202D01*
X147159619Y-108870090D01*
X147111474Y-108856100D01*
X147061918Y-108853558D01*
X146972644Y-108868818D01*
X146904293Y-108919193D01*
X146879993Y-108947813D01*
X146862767Y-108979532D01*
X146851113Y-109023572D01*
X146843529Y-109089154D01*
X146838515Y-109185501D01*
X146834568Y-109321835D01*
X146833843Y-109351858D01*
X146825094Y-109718889D01*
X146549906Y-109718889D01*
X146549906Y-108649951D01*
X146677161Y-108649951D01*
X146752685Y-108652014D01*
X146790363Y-108662541D01*
X146803210Y-108688043D01*
X146804415Y-108713578D01*
X146808599Y-108760916D01*
X146826822Y-108772593D01*
X146867598Y-108748689D01*
X146909657Y-108714591D01*
X147023299Y-108650091D01*
X147151892Y-108627404D01*
X147281784Y-108646240D01*
G37*
G36*
X145398295Y-108631070D02*
G01*
X145511826Y-108668469D01*
X145604412Y-108742489D01*
X145633022Y-108782036D01*
X145652185Y-108818041D01*
X145665938Y-108859175D01*
X145675161Y-108914169D01*
X145680733Y-108991756D01*
X145683534Y-109100667D01*
X145684445Y-109249634D01*
X145684481Y-109292586D01*
X145684576Y-109718889D01*
X145408199Y-109718889D01*
X145400045Y-109322295D01*
X145396386Y-109170382D01*
X145391932Y-109061281D01*
X145385606Y-108986904D01*
X145376332Y-108939162D01*
X145363034Y-108909967D01*
X145344635Y-108891230D01*
X145342487Y-108889629D01*
X145256226Y-108855429D01*
X145162643Y-108863179D01*
X145080091Y-108910877D01*
X145071828Y-108919158D01*
X145047538Y-108947725D01*
X145030335Y-108979331D01*
X145018731Y-109023195D01*
X145011233Y-109088536D01*
X145006353Y-109184573D01*
X145002600Y-109320527D01*
X145001887Y-109351823D01*
X144993646Y-109718889D01*
X144717442Y-109718889D01*
X144717442Y-108649951D01*
X144844696Y-108649951D01*
X144920010Y-108651498D01*
X144957564Y-108661726D01*
X144970498Y-108689008D01*
X144971951Y-108731065D01*
X144971951Y-108812179D01*
X145041941Y-108745410D01*
X145152362Y-108668860D01*
X145274810Y-108630973D01*
X145398295Y-108631070D01*
G37*
G36*
X118366252Y-88383959D02*
G01*
X118383445Y-88437804D01*
X118393084Y-88536614D01*
X118395817Y-88599934D01*
X118403151Y-88820989D01*
X118523072Y-88828706D01*
X118587589Y-88836547D01*
X118626517Y-88854501D01*
X118639715Y-88889132D01*
X118627043Y-88947005D01*
X118588362Y-89034683D01*
X118523532Y-89158730D01*
X118515738Y-89173144D01*
X118447706Y-89294264D01*
X118396622Y-89373526D01*
X118358662Y-89415546D01*
X118330002Y-89424936D01*
X118314619Y-89415799D01*
X118307816Y-89385114D01*
X118302583Y-89316052D01*
X118299715Y-89221134D01*
X118299405Y-89175769D01*
X118299405Y-88950953D01*
X118174874Y-88950953D01*
X118086433Y-88943829D01*
X118041051Y-88923326D01*
X118037361Y-88917123D01*
X118043973Y-88882625D01*
X118071689Y-88814273D01*
X118115990Y-88722193D01*
X118168255Y-88623884D01*
X118242508Y-88495042D01*
X118298469Y-88412296D01*
X118338822Y-88375362D01*
X118366252Y-88383959D01*
G37*
G36*
X178059267Y-100178994D02*
G01*
X178199475Y-100189084D01*
X178292291Y-100203018D01*
X178434360Y-100246217D01*
X178578600Y-100312927D01*
X178707264Y-100393599D01*
X178800885Y-100476711D01*
X178885548Y-100597366D01*
X178957401Y-100744151D01*
X179004904Y-100892308D01*
X179012148Y-100929898D01*
X179029033Y-101035997D01*
X178893528Y-101052545D01*
X178789282Y-101060431D01*
X178668025Y-101062811D01*
X178596485Y-101060975D01*
X178434948Y-101052857D01*
X178401254Y-100954546D01*
X178339043Y-100829800D01*
X178247965Y-100740800D01*
X178123877Y-100685120D01*
X177962639Y-100660335D01*
X177895645Y-100658509D01*
X177721941Y-100671658D01*
X177585269Y-100710449D01*
X177488264Y-100773357D01*
X177433563Y-100858856D01*
X177421850Y-100932676D01*
X177428186Y-100997637D01*
X177450683Y-101053019D01*
X177494579Y-101101885D01*
X177565109Y-101147294D01*
X177667511Y-101192307D01*
X177807021Y-101239985D01*
X177988875Y-101293390D01*
X178083574Y-101319469D01*
X178318508Y-101387379D01*
X178509150Y-101452773D01*
X178661730Y-101519353D01*
X178782474Y-101590821D01*
X178877613Y-101670877D01*
X178953376Y-101763222D01*
X179015990Y-101871557D01*
X179017343Y-101874304D01*
X179052119Y-101951162D01*
X179073480Y-102019882D01*
X179084574Y-102097525D01*
X179088550Y-102201153D01*
X179088857Y-102261774D01*
X179087196Y-102381635D01*
X179080083Y-102467578D01*
X179064268Y-102536541D01*
X179036505Y-102605460D01*
X179014233Y-102650931D01*
X178912825Y-102806149D01*
X178781018Y-102940387D01*
X178632636Y-103040132D01*
X178599962Y-103055743D01*
X178432992Y-103111864D01*
X178233895Y-103150442D01*
X178018882Y-103169894D01*
X177804163Y-103168634D01*
X177634281Y-103150144D01*
X177401017Y-103089428D01*
X177201828Y-102990901D01*
X177036689Y-102854539D01*
X176905575Y-102680321D01*
X176808460Y-102468222D01*
X176774162Y-102353920D01*
X176755584Y-102271741D01*
X176746279Y-102210009D01*
X176747382Y-102185453D01*
X176776260Y-102175475D01*
X176844049Y-102164354D01*
X176938840Y-102153833D01*
X176994994Y-102149168D01*
X177104070Y-102140087D01*
X177197229Y-102130485D01*
X177260330Y-102121900D01*
X177275508Y-102118676D01*
X177311942Y-102122406D01*
X177320047Y-102154191D01*
X177331029Y-102200872D01*
X177359767Y-102275866D01*
X177398450Y-102359642D01*
X177479444Y-102488730D01*
X177577838Y-102578267D01*
X177702728Y-102633880D01*
X177863206Y-102661194D01*
X177889020Y-102663079D01*
X178078395Y-102660739D01*
X178231541Y-102626511D01*
X178352685Y-102559393D01*
X178363291Y-102550759D01*
X178457087Y-102447262D01*
X178505554Y-102337798D01*
X178509030Y-102229633D01*
X178467852Y-102130038D01*
X178382357Y-102046278D01*
X178338643Y-102020280D01*
X178289428Y-102000688D01*
X178201650Y-101971424D01*
X178085958Y-101935824D01*
X177953001Y-101897225D01*
X177889137Y-101879426D01*
X177657612Y-101811959D01*
X177470236Y-101748257D01*
X177320685Y-101685455D01*
X177202641Y-101620691D01*
X177109781Y-101551102D01*
X177062867Y-101505128D01*
X176949564Y-101357192D01*
X176881351Y-101203122D01*
X176852924Y-101029634D01*
X176851371Y-100975596D01*
X176873602Y-100781083D01*
X176940777Y-100608744D01*
X177051034Y-100460745D01*
X177202512Y-100339250D01*
X177393351Y-100246423D01*
X177509831Y-100209586D01*
X177612599Y-100191571D01*
X177749388Y-100180375D01*
X177903758Y-100176137D01*
X178059267Y-100178994D01*
G37*
G36*
X161667742Y-103127105D02*
G01*
X161082371Y-103127105D01*
X161082371Y-100225702D01*
X161667742Y-100225702D01*
X161667742Y-103127105D01*
G37*
G36*
X135128814Y-108242878D02*
G01*
X135310181Y-108244998D01*
X135449841Y-108252507D01*
X135556875Y-108267374D01*
X135640362Y-108291567D01*
X135709383Y-108327052D01*
X135773018Y-108375798D01*
X135782934Y-108384623D01*
X135881111Y-108496105D01*
X135947502Y-108628210D01*
X135985110Y-108789311D01*
X135996933Y-108980812D01*
X135985497Y-109176645D01*
X135947786Y-109335798D01*
X135880699Y-109466910D01*
X135782934Y-109577002D01*
X135719321Y-109627969D01*
X135651723Y-109665371D01*
X135571059Y-109691177D01*
X135468249Y-109707354D01*
X135334214Y-109715870D01*
X135159872Y-109718692D01*
X135128814Y-109718747D01*
X134766139Y-109718889D01*
X134766139Y-109464380D01*
X135071550Y-109464380D01*
X135268794Y-109464004D01*
X135372925Y-109459773D01*
X135464475Y-109448962D01*
X135525362Y-109433801D01*
X135529666Y-109431837D01*
X135598933Y-109376985D01*
X135646246Y-109289743D01*
X135673425Y-109164886D01*
X135682289Y-108997186D01*
X135682292Y-108993538D01*
X135672544Y-108819236D01*
X135640545Y-108687828D01*
X135582161Y-108594643D01*
X135493258Y-108535006D01*
X135369703Y-108504244D01*
X135243343Y-108497285D01*
X135071550Y-108497245D01*
X135071550Y-109464380D01*
X134766139Y-109464380D01*
X134766139Y-108242736D01*
X135128814Y-108242878D01*
G37*
G36*
X130982204Y-88520040D02*
G01*
X131021937Y-88358869D01*
X131030699Y-88333983D01*
X131151337Y-88078040D01*
X131310621Y-87846750D01*
X131502912Y-87645634D01*
X131722572Y-87480213D01*
X131963964Y-87356007D01*
X132067954Y-87318263D01*
X132235951Y-87278962D01*
X132431864Y-87255944D01*
X132635556Y-87250031D01*
X132826892Y-87262044D01*
X132946399Y-87282418D01*
X133194294Y-87361053D01*
X133417991Y-87477292D01*
X133627215Y-87636646D01*
X133711369Y-87716020D01*
X133903515Y-87940504D01*
X134049516Y-88184481D01*
X134148391Y-88445652D01*
X134199155Y-88721717D01*
X134206219Y-88874600D01*
X134181880Y-89147535D01*
X134111676Y-89409963D01*
X133999826Y-89656507D01*
X133850550Y-89881790D01*
X133668066Y-90080437D01*
X133456596Y-90247068D01*
X133220356Y-90376308D01*
X132963568Y-90462780D01*
X132959125Y-90463831D01*
X132771325Y-90492743D01*
X132560009Y-90500511D01*
X132347814Y-90487465D01*
X132157374Y-90453937D01*
X132149830Y-90451992D01*
X131889889Y-90358267D01*
X131651368Y-90221332D01*
X131439043Y-90046082D01*
X131257686Y-89837410D01*
X131112073Y-89600210D01*
X131006977Y-89339375D01*
X130984006Y-89257020D01*
X130957605Y-89095320D01*
X130949117Y-88906460D01*
X130952748Y-88822012D01*
X131208260Y-88822012D01*
X131222152Y-89069913D01*
X131280837Y-89309324D01*
X131381335Y-89534056D01*
X131520668Y-89737916D01*
X131695855Y-89914715D01*
X131903918Y-90058260D01*
X131975439Y-90095431D01*
X132191251Y-90184442D01*
X132392758Y-90233200D01*
X132594206Y-90243591D01*
X132809845Y-90217501D01*
X132844596Y-90210494D01*
X133088912Y-90134087D01*
X133313687Y-90014762D01*
X133512945Y-89857879D01*
X133680708Y-89668798D01*
X133811000Y-89452876D01*
X133878300Y-89283650D01*
X133918374Y-89098886D01*
X133933060Y-88891231D01*
X133922357Y-88681911D01*
X133886265Y-88492154D01*
X133878300Y-88465550D01*
X133780092Y-88235857D01*
X133642317Y-88030588D01*
X133471138Y-87853660D01*
X133272719Y-87708994D01*
X133053224Y-87600508D01*
X132818815Y-87532122D01*
X132575656Y-87507754D01*
X132392184Y-87520587D01*
X132141494Y-87581868D01*
X131909646Y-87687188D01*
X131701917Y-87831721D01*
X131523584Y-88010646D01*
X131379923Y-88219138D01*
X131276211Y-88452374D01*
X131242142Y-88571814D01*
X131208260Y-88822012D01*
X130952748Y-88822012D01*
X130957624Y-88708635D01*
X130982204Y-88520040D01*
G37*
G36*
X130104883Y-108655160D02*
G01*
X130245997Y-108662676D01*
X130323653Y-108972624D01*
X130354244Y-109091497D01*
X130381527Y-109191587D01*
X130402688Y-109262971D01*
X130414913Y-109295731D01*
X130415494Y-109296461D01*
X130422561Y-109295011D01*
X130433197Y-109275453D01*
X130449209Y-109232262D01*
X130472404Y-109159915D01*
X130504590Y-109052887D01*
X130547574Y-108905654D01*
X130579134Y-108796293D01*
X130621254Y-108649951D01*
X130761143Y-108649951D01*
X130840644Y-108651348D01*
X130880117Y-108658912D01*
X130890423Y-108677703D01*
X130884088Y-108707215D01*
X130871266Y-108748578D01*
X130845582Y-108829892D01*
X130809744Y-108942642D01*
X130766456Y-109078318D01*
X130718427Y-109228405D01*
X130713794Y-109242860D01*
X130560444Y-109721241D01*
X130419670Y-109713702D01*
X130278897Y-109706163D01*
X130195637Y-109392025D01*
X130163649Y-109273134D01*
X130135925Y-109173453D01*
X130115196Y-109102561D01*
X130104192Y-109070038D01*
X130103595Y-109069103D01*
X130094395Y-109088923D01*
X130075314Y-109149373D01*
X130048918Y-109241727D01*
X130017776Y-109357260D01*
X130009325Y-109389605D01*
X129923838Y-109718889D01*
X129780810Y-109718458D01*
X129637782Y-109718028D01*
X129477637Y-109203077D01*
X129430147Y-109049293D01*
X129388356Y-108911890D01*
X129354471Y-108798305D01*
X129330704Y-108715974D01*
X129319263Y-108672334D01*
X129318569Y-108667709D01*
X129342083Y-108657605D01*
X129401300Y-108653604D01*
X129452410Y-108654983D01*
X129585174Y-108662676D01*
X129675105Y-108972999D01*
X129710140Y-109091317D01*
X129741064Y-109190999D01*
X129764756Y-109262307D01*
X129778093Y-109295502D01*
X129778829Y-109296443D01*
X129789816Y-109278233D01*
X129810338Y-109219173D01*
X129837715Y-109127831D01*
X129869269Y-109012772D01*
X129878195Y-108978605D01*
X129963769Y-108647645D01*
X130104883Y-108655160D01*
G37*
G36*
X174550943Y-101262826D02*
G01*
X174552914Y-101519926D01*
X174554846Y-101731216D01*
X174557027Y-101901786D01*
X174559748Y-102036726D01*
X174563296Y-102141128D01*
X174567960Y-102220081D01*
X174574030Y-102278676D01*
X174581793Y-102322005D01*
X174591538Y-102355156D01*
X174603555Y-102383220D01*
X174615846Y-102407019D01*
X174699387Y-102512500D01*
X174816710Y-102592162D01*
X174956750Y-102644263D01*
X175108440Y-102667061D01*
X175260714Y-102658816D01*
X175402507Y-102617783D01*
X175515336Y-102548616D01*
X175553158Y-102515870D01*
X175584547Y-102483800D01*
X175610153Y-102447519D01*
X175630625Y-102402140D01*
X175646613Y-102342776D01*
X175658766Y-102264539D01*
X175667734Y-102162541D01*
X175674168Y-102031896D01*
X175678715Y-101867715D01*
X175682027Y-101665112D01*
X175684753Y-101419199D01*
X175686246Y-101262826D01*
X175695979Y-100225702D01*
X176281589Y-100225702D01*
X176269723Y-101301003D01*
X176266409Y-101579972D01*
X176262850Y-101813225D01*
X176258571Y-102005947D01*
X176253094Y-102163325D01*
X176245944Y-102290543D01*
X176236645Y-102392787D01*
X176224722Y-102475242D01*
X176209697Y-102543094D01*
X176191095Y-102601528D01*
X176168441Y-102655730D01*
X176141257Y-102710884D01*
X176140099Y-102713124D01*
X176036676Y-102858842D01*
X175893092Y-102978552D01*
X175713763Y-103070820D01*
X175503107Y-103134213D01*
X175265539Y-103167294D01*
X175005477Y-103168630D01*
X174800407Y-103148233D01*
X174578298Y-103094123D01*
X174386724Y-103000710D01*
X174228377Y-102870631D01*
X174105946Y-102706525D01*
X174022123Y-102511028D01*
X173986977Y-102350853D01*
X173981179Y-102284793D01*
X173975819Y-102174768D01*
X173971051Y-102027716D01*
X173967033Y-101850571D01*
X173963920Y-101650270D01*
X173961870Y-101433751D01*
X173961037Y-101207948D01*
X173961032Y-101199199D01*
X173960528Y-100225702D01*
X174543263Y-100225702D01*
X174550943Y-101262826D01*
G37*
G36*
X144278413Y-108655043D02*
G01*
X144424756Y-108662676D01*
X144431635Y-109190782D01*
X144438514Y-109718889D01*
X144132071Y-109718889D01*
X144132071Y-108647411D01*
X144278413Y-108655043D01*
G37*
G36*
X131850923Y-108662676D02*
G01*
X131938717Y-109002174D01*
X132026511Y-109341671D01*
X132228925Y-108649951D01*
X132364967Y-108649951D01*
X132440404Y-108652763D01*
X132489804Y-108659998D01*
X132501009Y-108666593D01*
X132493552Y-108694718D01*
X132472699Y-108763957D01*
X132440727Y-108866998D01*
X132399913Y-108996526D01*
X132352534Y-109145228D01*
X132334625Y-109201062D01*
X132168241Y-109718889D01*
X131893799Y-109718889D01*
X131855564Y-109585271D01*
X131827634Y-109484752D01*
X131795797Y-109365967D01*
X131775121Y-109286460D01*
X131752590Y-109198180D01*
X131734845Y-109137471D01*
X131719218Y-109107439D01*
X131703040Y-109111189D01*
X131683642Y-109151829D01*
X131658355Y-109232465D01*
X131624512Y-109356204D01*
X131584019Y-109508919D01*
X131528298Y-109718889D01*
X131392608Y-109718889D01*
X131314757Y-109715599D01*
X131260557Y-109707151D01*
X131245723Y-109699800D01*
X131234690Y-109670096D01*
X131211680Y-109600940D01*
X131179463Y-109501205D01*
X131140814Y-109379764D01*
X131098506Y-109245488D01*
X131055312Y-109107249D01*
X131014005Y-108973920D01*
X130977359Y-108854373D01*
X130948146Y-108757480D01*
X130929140Y-108692112D01*
X130923053Y-108667498D01*
X130946017Y-108657695D01*
X131005003Y-108651326D01*
X131056737Y-108649951D01*
X131190420Y-108649951D01*
X131276717Y-108961724D01*
X131310750Y-109081358D01*
X131341419Y-109183086D01*
X131365567Y-109256849D01*
X131380039Y-109292588D01*
X131380889Y-109293748D01*
X131393317Y-109278186D01*
X131415020Y-109221468D01*
X131443239Y-109131899D01*
X131475212Y-109017782D01*
X131484897Y-108980879D01*
X131571029Y-108647760D01*
X131850923Y-108662676D01*
G37*
G36*
X173114428Y-71039881D02*
G01*
X173107923Y-73209570D01*
X172668894Y-73216534D01*
X172229866Y-73223497D01*
X172229866Y-68870191D01*
X173120934Y-68870191D01*
X173114428Y-71039881D01*
G37*
G36*
X137417292Y-108655146D02*
G01*
X137570627Y-108662676D01*
X137689074Y-108985087D01*
X137733503Y-109104454D01*
X137772318Y-109205818D01*
X137801915Y-109279976D01*
X137818689Y-109317728D01*
X137820434Y-109320377D01*
X137833277Y-109302584D01*
X137859859Y-109244941D01*
X137896762Y-109155522D01*
X137940571Y-109042401D01*
X137959529Y-108991604D01*
X138085711Y-108649951D01*
X138380850Y-108649951D01*
X138346730Y-108732666D01*
X138326769Y-108782340D01*
X138291960Y-108870290D01*
X138245909Y-108987355D01*
X138192221Y-109124373D01*
X138136465Y-109267135D01*
X137960320Y-109718889D01*
X137826027Y-109718889D01*
X137744893Y-109715863D01*
X137699708Y-109703175D01*
X137675696Y-109675412D01*
X137669748Y-109661624D01*
X137653777Y-109621058D01*
X137622106Y-109541448D01*
X137578005Y-109430986D01*
X137524747Y-109297864D01*
X137465601Y-109150271D01*
X137455861Y-109125988D01*
X137263958Y-108647616D01*
X137417292Y-108655146D01*
G37*
G36*
X161699556Y-68876386D02*
G01*
X162003114Y-68878782D01*
X162260575Y-68881344D01*
X162476746Y-68884495D01*
X162656432Y-68888662D01*
X162804436Y-68894268D01*
X162925565Y-68901740D01*
X163024623Y-68911502D01*
X163106416Y-68923978D01*
X163175749Y-68939594D01*
X163237427Y-68958775D01*
X163296255Y-68981946D01*
X163357038Y-69009531D01*
X163391548Y-69026019D01*
X163566922Y-69137911D01*
X163716293Y-69289011D01*
X163836045Y-69472814D01*
X163922566Y-69682814D01*
X163972239Y-69912506D01*
X163983152Y-70090819D01*
X163962667Y-70342027D01*
X163902062Y-70563744D01*
X163800015Y-70759429D01*
X163665073Y-70922777D01*
X163513603Y-71050452D01*
X163338239Y-71150851D01*
X163128014Y-71229888D01*
X163058779Y-71249707D01*
X162859134Y-71303537D01*
X162969701Y-71376575D01*
X163119777Y-71491892D01*
X163276658Y-71641029D01*
X163427397Y-71810892D01*
X163523689Y-71937025D01*
X163569250Y-72003634D01*
X163636476Y-72105197D01*
X163720102Y-72233474D01*
X163814862Y-72380221D01*
X163915493Y-72537199D01*
X164016729Y-72696166D01*
X164113306Y-72848882D01*
X164199960Y-72987103D01*
X164271425Y-73102591D01*
X164322437Y-73187102D01*
X164324423Y-73190482D01*
X164320701Y-73201470D01*
X164291534Y-73209710D01*
X164231860Y-73215508D01*
X164136621Y-73219168D01*
X164000755Y-73220996D01*
X163819203Y-73221296D01*
X163813483Y-73221285D01*
X163283874Y-73220275D01*
X162825758Y-72529849D01*
X162655012Y-72275630D01*
X162506841Y-72062287D01*
X162378453Y-71886567D01*
X162267060Y-71745213D01*
X162169871Y-71634971D01*
X162084096Y-71552584D01*
X162006947Y-71494799D01*
X161935631Y-71458360D01*
X161896800Y-71445962D01*
X161818075Y-71430934D01*
X161708243Y-71416047D01*
X161587043Y-71403850D01*
X161546850Y-71400776D01*
X161311430Y-71384427D01*
X161311430Y-73222295D01*
X160420648Y-73222295D01*
X160420648Y-70709061D01*
X161311430Y-70709061D01*
X161981567Y-70698229D01*
X162183655Y-70694849D01*
X162341768Y-70691575D01*
X162462828Y-70687733D01*
X162553755Y-70682646D01*
X162621472Y-70675640D01*
X162672899Y-70666039D01*
X162714958Y-70653167D01*
X162754570Y-70636348D01*
X162789633Y-70619359D01*
X162914510Y-70541433D01*
X162997667Y-70446880D01*
X163045505Y-70325714D01*
X163063290Y-70192383D01*
X163063945Y-70088087D01*
X163055845Y-69990450D01*
X163043412Y-69930406D01*
X162992328Y-69838070D01*
X162908283Y-69747727D01*
X162807573Y-69674206D01*
X162719393Y-69635554D01*
X162663948Y-69627407D01*
X162564298Y-69620406D01*
X162427129Y-69614792D01*
X162259131Y-69610806D01*
X162066991Y-69608690D01*
X161966790Y-69608409D01*
X161311430Y-69608267D01*
X161311430Y-70709061D01*
X160420648Y-70709061D01*
X160420648Y-68866820D01*
X161699556Y-68876386D01*
G37*
G36*
X134486179Y-109718889D02*
G01*
X134180768Y-109718889D01*
X134180768Y-109438929D01*
X134486179Y-109438929D01*
X134486179Y-109718889D01*
G37*
G36*
X140305751Y-108811643D02*
G01*
X140409952Y-108710095D01*
X140541258Y-108648116D01*
X140695678Y-108629173D01*
X140754622Y-108633372D01*
X140906007Y-108673704D01*
X141027143Y-108754529D01*
X141116952Y-108874626D01*
X141174356Y-109032776D01*
X141190742Y-109127155D01*
X141206970Y-109260772D01*
X140492592Y-109260772D01*
X140492592Y-109322980D01*
X140514193Y-109410471D01*
X140570312Y-109476145D01*
X140647926Y-109515351D01*
X140734009Y-109523441D01*
X140815536Y-109495763D01*
X140861339Y-109454627D01*
X140900785Y-109411806D01*
X140940803Y-109394590D01*
X141001937Y-109396754D01*
X141036381Y-109401572D01*
X141108915Y-109415886D01*
X141157377Y-109431866D01*
X141166924Y-109438740D01*
X141163725Y-109477245D01*
X141129027Y-109533607D01*
X141072865Y-109596258D01*
X141005276Y-109653629D01*
X140951473Y-109687075D01*
X140818184Y-109730555D01*
X140666104Y-109742251D01*
X140517383Y-109720630D01*
X140507702Y-109717838D01*
X140398322Y-109659965D01*
X140306999Y-109562762D01*
X140238924Y-109436148D01*
X140199287Y-109290043D01*
X140193280Y-109134366D01*
X140194631Y-109119586D01*
X140214506Y-109030557D01*
X140492592Y-109030557D01*
X140496581Y-109056473D01*
X140515394Y-109072002D01*
X140559298Y-109079771D01*
X140638563Y-109082404D01*
X140696199Y-109082616D01*
X140798011Y-109081412D01*
X140859062Y-109076226D01*
X140889464Y-109064701D01*
X140899332Y-109044480D01*
X140899806Y-109035147D01*
X140876904Y-108957666D01*
X140818378Y-108893572D01*
X140739498Y-108857165D01*
X140705920Y-108853558D01*
X140622567Y-108872494D01*
X140549607Y-108920851D01*
X140502323Y-108985948D01*
X140492592Y-109030557D01*
X140214506Y-109030557D01*
X140232647Y-108949295D01*
X140305751Y-108811643D01*
G37*
G36*
X138838283Y-108497245D02*
G01*
X138558323Y-108497245D01*
X138558323Y-108242736D01*
X138838283Y-108242736D01*
X138838283Y-108497245D01*
G37*
G36*
X167199604Y-100773187D02*
G01*
X167066033Y-100911727D01*
X166944308Y-101038805D01*
X166838850Y-101149736D01*
X166754084Y-101239839D01*
X166694431Y-101304430D01*
X166664314Y-101338827D01*
X166661578Y-101342840D01*
X166673410Y-101368054D01*
X166710241Y-101431150D01*
X166769140Y-101527452D01*
X166847178Y-101652286D01*
X166941427Y-101800975D01*
X167048955Y-101968846D01*
X167166835Y-102151224D01*
X167203180Y-102207146D01*
X167324454Y-102393904D01*
X167437188Y-102568266D01*
X167538304Y-102725416D01*
X167624725Y-102860538D01*
X167693373Y-102968814D01*
X167741170Y-103045429D01*
X167765040Y-103085566D01*
X167766994Y-103089551D01*
X167767386Y-103104641D01*
X167750324Y-103114945D01*
X167708815Y-103121082D01*
X167635865Y-103123672D01*
X167524480Y-103123333D01*
X167406754Y-103121440D01*
X167031568Y-103114380D01*
X166643812Y-102453848D01*
X166545726Y-102287887D01*
X166455068Y-102136641D01*
X166375220Y-102005585D01*
X166309566Y-101900192D01*
X166261487Y-101825937D01*
X166234365Y-101788294D01*
X166230415Y-101784769D01*
X166204510Y-101799257D01*
X166152108Y-101844973D01*
X166080492Y-101915066D01*
X165996944Y-102002686D01*
X165985056Y-102015584D01*
X165765337Y-102254946D01*
X165765337Y-103127105D01*
X165179967Y-103127105D01*
X165179967Y-100225702D01*
X165765337Y-100225702D01*
X165765337Y-101497939D01*
X166345459Y-100868183D01*
X166925581Y-100238428D01*
X167327972Y-100231405D01*
X167730363Y-100224383D01*
X167199604Y-100773187D01*
G37*
G36*
X171689734Y-69232867D02*
G01*
X171682672Y-69595542D01*
X171040037Y-69602342D01*
X170397401Y-69609141D01*
X170397401Y-73222295D01*
X169506620Y-73222295D01*
X169506620Y-69609141D01*
X168863985Y-69602342D01*
X168221349Y-69595542D01*
X168214288Y-69232867D01*
X168207226Y-68870191D01*
X171696795Y-68870191D01*
X171689734Y-69232867D01*
G37*
G36*
X134608759Y-80832115D02*
G01*
X134855609Y-80833095D01*
X135058250Y-80836501D01*
X135223349Y-80843034D01*
X135357568Y-80853394D01*
X135467573Y-80868282D01*
X135560029Y-80888398D01*
X135641599Y-80914441D01*
X135718948Y-80947114D01*
X135723518Y-80949261D01*
X135887433Y-81053178D01*
X136035171Y-81198885D01*
X136161244Y-81378408D01*
X136260166Y-81583769D01*
X136326450Y-81806994D01*
X136331704Y-81833302D01*
X136354776Y-82004370D01*
X136366252Y-82200686D01*
X136366140Y-82403536D01*
X136354450Y-82594202D01*
X136331258Y-82753658D01*
X136264974Y-82977072D01*
X136166349Y-83182210D01*
X136040960Y-83360918D01*
X135894383Y-83505040D01*
X135756007Y-83594915D01*
X135674211Y-83633428D01*
X135592630Y-83664186D01*
X135504352Y-83688029D01*
X135402463Y-83705798D01*
X135280049Y-83718335D01*
X135130196Y-83726480D01*
X134945992Y-83731074D01*
X134720522Y-83732959D01*
X134619796Y-83733142D01*
X133926259Y-83733518D01*
X133926259Y-83256250D01*
X134537081Y-83256250D01*
X134912482Y-83244568D01*
X135084197Y-83237361D01*
X135213192Y-83227292D01*
X135307613Y-83213416D01*
X135375604Y-83194789D01*
X135389686Y-83189167D01*
X135504342Y-83126366D01*
X135593719Y-83044099D01*
X135660527Y-82936404D01*
X135707474Y-82797319D01*
X135737268Y-82620884D01*
X135752617Y-82401135D01*
X135753038Y-82389375D01*
X135754734Y-82146901D01*
X135740449Y-81947083D01*
X135708609Y-81783757D01*
X135657638Y-81650759D01*
X135585963Y-81541925D01*
X135519136Y-81473729D01*
X135458404Y-81426758D01*
X135392086Y-81391445D01*
X135311151Y-81365648D01*
X135206564Y-81347224D01*
X135069295Y-81334030D01*
X134890311Y-81323924D01*
X134887031Y-81323774D01*
X134537081Y-81307861D01*
X134537081Y-83256250D01*
X133926259Y-83256250D01*
X133926259Y-80832115D01*
X134608759Y-80832115D01*
G37*
G36*
X117461653Y-89256459D02*
G01*
X117459865Y-89063805D01*
X117459526Y-88879296D01*
X117459696Y-88669904D01*
X117460478Y-88505317D01*
X117462276Y-88379442D01*
X117465495Y-88286183D01*
X117470540Y-88219445D01*
X117477816Y-88173132D01*
X117487728Y-88141150D01*
X117500682Y-88117403D01*
X117511091Y-88103284D01*
X117562787Y-88051886D01*
X117612895Y-88021784D01*
X117634144Y-88009269D01*
X117917642Y-88009269D01*
X118782973Y-88009269D01*
X118782973Y-87882015D01*
X117917642Y-87882015D01*
X117917642Y-88009269D01*
X117634144Y-88009269D01*
X117641922Y-88004688D01*
X117657196Y-87968345D01*
X117662739Y-87899706D01*
X117663133Y-87858793D01*
X117673536Y-87744747D01*
X117707586Y-87672095D01*
X117769545Y-87635168D01*
X117836931Y-87627506D01*
X117917642Y-87627506D01*
X117917642Y-87373892D01*
X117918590Y-87256756D01*
X117922701Y-87180186D01*
X117931878Y-87133862D01*
X117948023Y-87107464D01*
X117969505Y-87092522D01*
X118044857Y-87076735D01*
X118110925Y-87105742D01*
X118148158Y-87160499D01*
X118159706Y-87215967D01*
X118168210Y-87304641D01*
X118172071Y-87408845D01*
X118172151Y-87425555D01*
X118172151Y-87627506D01*
X118528464Y-87627506D01*
X118528464Y-87389667D01*
X118530078Y-87272609D01*
X118536150Y-87195287D01*
X118548526Y-87146602D01*
X118569051Y-87115456D01*
X118575007Y-87109707D01*
X118642291Y-87071391D01*
X118705210Y-87083601D01*
X118740852Y-87114129D01*
X118762311Y-87150364D01*
X118775406Y-87208271D01*
X118781725Y-87298405D01*
X118782973Y-87394089D01*
X118782973Y-87627506D01*
X118853662Y-87627506D01*
X118929316Y-87642141D01*
X118980917Y-87667125D01*
X119013703Y-87698322D01*
X119030897Y-87743218D01*
X119037072Y-87817254D01*
X119037482Y-87858007D01*
X119041621Y-87943012D01*
X119052730Y-87996513D01*
X119064089Y-88009269D01*
X119098637Y-88025823D01*
X119147554Y-88066229D01*
X119153168Y-88071740D01*
X119215638Y-88134210D01*
X119215638Y-89654705D01*
X119156733Y-89710043D01*
X119127640Y-89733504D01*
X119092846Y-89749236D01*
X119042198Y-89758759D01*
X118965545Y-89763594D01*
X118852736Y-89765260D01*
X118787210Y-89765382D01*
X118476592Y-89765382D01*
X118492611Y-89835372D01*
X118563494Y-90034620D01*
X118677293Y-90214815D01*
X118827081Y-90367242D01*
X119005930Y-90483185D01*
X119008331Y-90484371D01*
X119074276Y-90516140D01*
X119129080Y-90538512D01*
X119183702Y-90553137D01*
X119249100Y-90561660D01*
X119336233Y-90565729D01*
X119456060Y-90566990D01*
X119558645Y-90567085D01*
X119706550Y-90566728D01*
X119814614Y-90564583D01*
X119893896Y-90559041D01*
X119955456Y-90548492D01*
X120010355Y-90531329D01*
X120069653Y-90505941D01*
X120110457Y-90486795D01*
X120298138Y-90371935D01*
X120450021Y-90221415D01*
X120568188Y-90033139D01*
X120574587Y-90019891D01*
X120601159Y-89962919D01*
X120621077Y-89913611D01*
X120635454Y-89863337D01*
X120645402Y-89803468D01*
X120652036Y-89725376D01*
X120656466Y-89620431D01*
X120659808Y-89480004D01*
X120662395Y-89339079D01*
X120671565Y-88823698D01*
X120609270Y-88823698D01*
X120554012Y-88812170D01*
X120504262Y-88772734D01*
X120453407Y-88698111D01*
X120401092Y-88594557D01*
X120359662Y-88474777D01*
X120336534Y-88341941D01*
X120335146Y-88301091D01*
X120589987Y-88301091D01*
X120601593Y-88385624D01*
X120629841Y-88472660D01*
X120632877Y-88479248D01*
X120665331Y-88536477D01*
X120703020Y-88562359D01*
X120766535Y-88569074D01*
X120784929Y-88569189D01*
X120857923Y-88564294D01*
X120900480Y-88542823D01*
X120932663Y-88494597D01*
X120932920Y-88494100D01*
X120958872Y-88417349D01*
X120971512Y-88327810D01*
X120971750Y-88315944D01*
X120971750Y-88212877D01*
X120589987Y-88212877D01*
X120589987Y-88301091D01*
X120335146Y-88301091D01*
X120332070Y-88210568D01*
X120346631Y-88095179D01*
X120380576Y-88010295D01*
X120386379Y-88002325D01*
X120422002Y-87933674D01*
X120427879Y-87894740D01*
X120691790Y-87894740D01*
X120698446Y-87937769D01*
X120728395Y-87955384D01*
X120780868Y-87958368D01*
X120841108Y-87953614D01*
X120865769Y-87932221D01*
X120869947Y-87894740D01*
X120863291Y-87851712D01*
X120833342Y-87834097D01*
X120780868Y-87831113D01*
X120720629Y-87835867D01*
X120695967Y-87857259D01*
X120691790Y-87894740D01*
X120427879Y-87894740D01*
X120436463Y-87837878D01*
X120437281Y-87799230D01*
X120441173Y-87711233D01*
X120457968Y-87649932D01*
X120495345Y-87610573D01*
X120560983Y-87588403D01*
X120662559Y-87578666D01*
X120796870Y-87576604D01*
X120940273Y-87579773D01*
X121039026Y-87589092D01*
X121090369Y-87604277D01*
X121093914Y-87607145D01*
X121110549Y-87648190D01*
X121121575Y-87722890D01*
X121124456Y-87791905D01*
X121127564Y-87883157D01*
X121139457Y-87937815D01*
X121163984Y-87969947D01*
X121175357Y-87977912D01*
X121199061Y-87997920D01*
X121214012Y-88029155D01*
X121222113Y-88082228D01*
X121225270Y-88167751D01*
X121225544Y-88257631D01*
X121223901Y-88376624D01*
X121217548Y-88461041D01*
X121203116Y-88527191D01*
X121177239Y-88591384D01*
X121142828Y-88658267D01*
X121091699Y-88745458D01*
X121049662Y-88794883D01*
X121007619Y-88816317D01*
X120993387Y-88818780D01*
X120925946Y-88826587D01*
X120914717Y-89353249D01*
X120910141Y-89538649D01*
X120904810Y-89681592D01*
X120897922Y-89790519D01*
X120888677Y-89873876D01*
X120876272Y-89940105D01*
X120859906Y-89997651D01*
X120851171Y-90022592D01*
X120743110Y-90249194D01*
X120598652Y-90443817D01*
X120421911Y-90602720D01*
X120216997Y-90722158D01*
X120002411Y-90795092D01*
X119878143Y-90815468D01*
X119723547Y-90827682D01*
X119554589Y-90831751D01*
X119387231Y-90827694D01*
X119237435Y-90815528D01*
X119121167Y-90795271D01*
X119116693Y-90794093D01*
X118894755Y-90709605D01*
X118694471Y-90584427D01*
X118521896Y-90424820D01*
X118383087Y-90237042D01*
X118284099Y-90027357D01*
X118246528Y-89894510D01*
X118218835Y-89765382D01*
X117917615Y-89765382D01*
X117795553Y-89764095D01*
X117689769Y-89760597D01*
X117612053Y-89755433D01*
X117575195Y-89749572D01*
X117543154Y-89733198D01*
X117517577Y-89707750D01*
X117497748Y-89667857D01*
X117482955Y-89608151D01*
X117472484Y-89523263D01*
X117471747Y-89510873D01*
X117714035Y-89510873D01*
X118961129Y-89510873D01*
X118961129Y-88263778D01*
X117714035Y-88263778D01*
X117714035Y-89510873D01*
X117471747Y-89510873D01*
X117465621Y-89407822D01*
X117461653Y-89256459D01*
G37*
G36*
X163124806Y-100231398D02*
G01*
X163369124Y-100234184D01*
X163568000Y-100237226D01*
X163726892Y-100240808D01*
X163851261Y-100245212D01*
X163946564Y-100250723D01*
X164018262Y-100257624D01*
X164071814Y-100266198D01*
X164112679Y-100276729D01*
X164132416Y-100283727D01*
X164291707Y-100368046D01*
X164418605Y-100486497D01*
X164520076Y-100645653D01*
X164523718Y-100652987D01*
X164565960Y-100744191D01*
X164590805Y-100818510D01*
X164602543Y-100896290D01*
X164605461Y-100997877D01*
X164605224Y-101039678D01*
X164591743Y-101221075D01*
X164552156Y-101368715D01*
X164481866Y-101494973D01*
X164401772Y-101587571D01*
X164286083Y-101678697D01*
X164142206Y-101756266D01*
X163992814Y-101808674D01*
X163952958Y-101817281D01*
X163858514Y-101834400D01*
X164003860Y-101944074D01*
X164071453Y-101999563D01*
X164139330Y-102065620D01*
X164210839Y-102146844D01*
X164289325Y-102247836D01*
X164378134Y-102373195D01*
X164480614Y-102527521D01*
X164600111Y-102715414D01*
X164739970Y-102941474D01*
X164795083Y-103031664D01*
X164853256Y-103127105D01*
X164501231Y-103126035D01*
X164149205Y-103124965D01*
X163856520Y-102688231D01*
X163723061Y-102489829D01*
X163613091Y-102329647D01*
X163522052Y-102203422D01*
X163445389Y-102106895D01*
X163378544Y-102035804D01*
X163316963Y-101985888D01*
X163256088Y-101952887D01*
X163191364Y-101932540D01*
X163118234Y-101920585D01*
X163032142Y-101912763D01*
X163026870Y-101912362D01*
X162839422Y-101898186D01*
X162825758Y-103114380D01*
X162544464Y-103121529D01*
X162429460Y-103122895D01*
X162333780Y-103121109D01*
X162268539Y-103116564D01*
X162245416Y-103110924D01*
X162242134Y-103082880D01*
X162239048Y-103008547D01*
X162236216Y-102892537D01*
X162233692Y-102739461D01*
X162231535Y-102553932D01*
X162229799Y-102340563D01*
X162228542Y-102103964D01*
X162227819Y-101848750D01*
X162227662Y-101657691D01*
X162227662Y-101454644D01*
X162838484Y-101454644D01*
X163291304Y-101441662D01*
X163468451Y-101435529D01*
X163602102Y-101428171D01*
X163699664Y-101418822D01*
X163768540Y-101406720D01*
X163816136Y-101391102D01*
X163825534Y-101386581D01*
X163919963Y-101312675D01*
X163980240Y-101213834D01*
X164006459Y-101101332D01*
X163998714Y-100986448D01*
X163957099Y-100880456D01*
X163881709Y-100794634D01*
X163820274Y-100757501D01*
X163774101Y-100739735D01*
X163719981Y-100726934D01*
X163649044Y-100718320D01*
X163552423Y-100713112D01*
X163421248Y-100710534D01*
X163277512Y-100709828D01*
X162838484Y-100709269D01*
X162838484Y-101454644D01*
X162227662Y-101454644D01*
X162227662Y-100222211D01*
X163124806Y-100231398D01*
G37*
G36*
X146269947Y-109718889D02*
G01*
X145964536Y-109718889D01*
X145964536Y-109438929D01*
X146269947Y-109438929D01*
X146269947Y-109718889D01*
G37*
G36*
X128143540Y-70597095D02*
G01*
X128204035Y-70276341D01*
X128300956Y-69985288D01*
X128435203Y-69721129D01*
X128607674Y-69481057D01*
X128781816Y-69296834D01*
X128949743Y-69152061D01*
X129113755Y-69042321D01*
X129291864Y-68956707D01*
X129421450Y-68909580D01*
X129597635Y-68857488D01*
X129764278Y-68822603D01*
X129936863Y-68803056D01*
X130130875Y-68796977D01*
X130321497Y-68800903D01*
X130533517Y-68812678D01*
X130709817Y-68832948D01*
X130865329Y-68865180D01*
X131014985Y-68912838D01*
X131173717Y-68979389D01*
X131253914Y-69017311D01*
X131368698Y-69076060D01*
X131462150Y-69132973D01*
X131548951Y-69198868D01*
X131643783Y-69284570D01*
X131725776Y-69365114D01*
X131899504Y-69557646D01*
X132035192Y-69753362D01*
X132141802Y-69967543D01*
X132228295Y-70215469D01*
X132232086Y-70228453D01*
X132297621Y-70526093D01*
X132331867Y-70848473D01*
X132334829Y-71180188D01*
X132306514Y-71505832D01*
X132246926Y-71809999D01*
X132231559Y-71865852D01*
X132119077Y-72168782D01*
X131967310Y-72440274D01*
X131778348Y-72678298D01*
X131554279Y-72880825D01*
X131297191Y-73045827D01*
X131009173Y-73171274D01*
X130833975Y-73223791D01*
X130684228Y-73252668D01*
X130501679Y-73273736D01*
X130303955Y-73286111D01*
X130108682Y-73288911D01*
X129933485Y-73281253D01*
X129855657Y-73272773D01*
X129535578Y-73204313D01*
X129242758Y-73093926D01*
X128979244Y-72943904D01*
X128747084Y-72756542D01*
X128548327Y-72534131D01*
X128385022Y-72278966D01*
X128259217Y-71993340D01*
X128172961Y-71679546D01*
X128128302Y-71339877D01*
X128128240Y-71338929D01*
X128120555Y-71029976D01*
X129021939Y-71029976D01*
X129037751Y-71314463D01*
X129085263Y-71583654D01*
X129162874Y-71826908D01*
X129221477Y-71952717D01*
X129305790Y-72079673D01*
X129419100Y-72207756D01*
X129545718Y-72321312D01*
X129669957Y-72404686D01*
X129679337Y-72409590D01*
X129863764Y-72480538D01*
X130072040Y-72522380D01*
X130285532Y-72533123D01*
X130485605Y-72510770D01*
X130528564Y-72500524D01*
X130747653Y-72416545D01*
X130941791Y-72290380D01*
X131107214Y-72126126D01*
X131240160Y-71927880D01*
X131336866Y-71699740D01*
X131367964Y-71586664D01*
X131412183Y-71312802D01*
X131425226Y-71020456D01*
X131407643Y-70727015D01*
X131359985Y-70449867D01*
X131328283Y-70333187D01*
X131240388Y-70127265D01*
X131113693Y-69942048D01*
X130955601Y-69785044D01*
X130773518Y-69663764D01*
X130597523Y-69592024D01*
X130393705Y-69553351D01*
X130176123Y-69548583D01*
X129959205Y-69575956D01*
X129757379Y-69633706D01*
X129593180Y-69714834D01*
X129419768Y-69849877D01*
X129279829Y-70014521D01*
X129171462Y-70212285D01*
X129092768Y-70446688D01*
X129041850Y-70721249D01*
X129039424Y-70740832D01*
X129021939Y-71029976D01*
X128120555Y-71029976D01*
X128118575Y-70950355D01*
X128143540Y-70597095D01*
G37*
G36*
X158772265Y-100861972D02*
G01*
X158779065Y-101498241D01*
X159361922Y-100861972D01*
X159944778Y-100225702D01*
X160737510Y-100225702D01*
X160547432Y-100422947D01*
X160466580Y-100506477D01*
X160360021Y-100616028D01*
X160237759Y-100741345D01*
X160109795Y-100872173D01*
X160004003Y-100980062D01*
X159650652Y-101339934D01*
X160209706Y-102201706D01*
X160332016Y-102390331D01*
X160445986Y-102566258D01*
X160548564Y-102724765D01*
X160636699Y-102861131D01*
X160707341Y-102970634D01*
X160757439Y-103048552D01*
X160783941Y-103090163D01*
X160787088Y-103095291D01*
X160783690Y-103108032D01*
X160752667Y-103117075D01*
X160688277Y-103122929D01*
X160584782Y-103126103D01*
X160436440Y-103127103D01*
X160427668Y-103127105D01*
X160049921Y-103127105D01*
X159659164Y-102459019D01*
X159561394Y-102292041D01*
X159471914Y-102139575D01*
X159393947Y-102007081D01*
X159330712Y-101900018D01*
X159285431Y-101823847D01*
X159261323Y-101784026D01*
X159258346Y-101779517D01*
X159237730Y-101792178D01*
X159188277Y-101834854D01*
X159116862Y-101901287D01*
X159030360Y-101985218D01*
X159007312Y-102008073D01*
X158766339Y-102248044D01*
X158766339Y-103127105D01*
X158180969Y-103127105D01*
X158180969Y-100225702D01*
X158765465Y-100225702D01*
X158772265Y-100861972D01*
G37*
G36*
X133391790Y-81314947D02*
G01*
X132609175Y-81321677D01*
X131826560Y-81328408D01*
X131812274Y-81951172D01*
X132544768Y-81957926D01*
X133277261Y-81964680D01*
X133284546Y-82212826D01*
X133291830Y-82460973D01*
X131812509Y-82460973D01*
X131819534Y-82849099D01*
X131826560Y-83237225D01*
X132634626Y-83243945D01*
X133442692Y-83250666D01*
X133442692Y-83733518D01*
X131228464Y-83733518D01*
X131228464Y-80832115D01*
X133391790Y-80832115D01*
X133391790Y-81314947D01*
G37*
G36*
X139874402Y-70479961D02*
G01*
X139871723Y-70829703D01*
X139868976Y-71132650D01*
X139865806Y-71392906D01*
X139861862Y-71614578D01*
X139856788Y-71801769D01*
X139850233Y-71958587D01*
X139841842Y-72089135D01*
X139831261Y-72197519D01*
X139818138Y-72287845D01*
X139802120Y-72364218D01*
X139782851Y-72430743D01*
X139759980Y-72491526D01*
X139733153Y-72550671D01*
X139702015Y-72612285D01*
X139688613Y-72637896D01*
X139555455Y-72837869D01*
X139385158Y-73005218D01*
X139182465Y-73136246D01*
X138952119Y-73227258D01*
X138921426Y-73235687D01*
X138765740Y-73265032D01*
X138580624Y-73282374D01*
X138386264Y-73287086D01*
X138202844Y-73278545D01*
X138077824Y-73261802D01*
X137835964Y-73192397D01*
X137625066Y-73083042D01*
X137446646Y-72935305D01*
X137302219Y-72750757D01*
X137193301Y-72530966D01*
X137121407Y-72277502D01*
X137119932Y-72269887D01*
X137101380Y-72160143D01*
X137087906Y-72056070D01*
X137082210Y-71978807D01*
X137082171Y-71974116D01*
X137082224Y-71934491D01*
X137087142Y-71905476D01*
X137104063Y-71884479D01*
X137140123Y-71868909D01*
X137202461Y-71856175D01*
X137298214Y-71843685D01*
X137434520Y-71828849D01*
X137502111Y-71821665D01*
X137620035Y-71808573D01*
X137727139Y-71795775D01*
X137807835Y-71785175D01*
X137835484Y-71780943D01*
X137914349Y-71767374D01*
X137931467Y-71951557D01*
X137961474Y-72133691D01*
X138015952Y-72277749D01*
X138098452Y-72392061D01*
X138133594Y-72425699D01*
X138234348Y-72493244D01*
X138350819Y-72527667D01*
X138495086Y-72531945D01*
X138547281Y-72527621D01*
X138688657Y-72498684D01*
X138796639Y-72441325D01*
X138876058Y-72350285D01*
X138931750Y-72220301D01*
X138964295Y-72073716D01*
X138969930Y-72012470D01*
X138975005Y-71903635D01*
X138979469Y-71750519D01*
X138983268Y-71556433D01*
X138986351Y-71324686D01*
X138988666Y-71058587D01*
X138990160Y-70761446D01*
X138990782Y-70436573D01*
X138990796Y-70390883D01*
X138990989Y-68870191D01*
X139886278Y-68870191D01*
X139874402Y-70479961D01*
G37*
G36*
X148620432Y-70263628D02*
G01*
X148769628Y-70506951D01*
X148911726Y-70738337D01*
X149044371Y-70953978D01*
X149165213Y-71150066D01*
X149271898Y-71322794D01*
X149362074Y-71468354D01*
X149433387Y-71582938D01*
X149483487Y-71662739D01*
X149510019Y-71703950D01*
X149512837Y-71707967D01*
X149521104Y-71714979D01*
X149528121Y-71710076D01*
X149533993Y-71689604D01*
X149538822Y-71649908D01*
X149542713Y-71587336D01*
X149545769Y-71498234D01*
X149548093Y-71378948D01*
X149549788Y-71225824D01*
X149550959Y-71035210D01*
X149551709Y-70803451D01*
X149552140Y-70526895D01*
X149552303Y-70314530D01*
X149553113Y-68870191D01*
X150367542Y-68870191D01*
X150367542Y-73223470D01*
X149469570Y-73209570D01*
X148601472Y-71805166D01*
X147733373Y-70400762D01*
X147726797Y-71811529D01*
X147720221Y-73222295D01*
X146906219Y-73222295D01*
X146906219Y-68870191D01*
X147766683Y-68870191D01*
X148620432Y-70263628D01*
G37*
G36*
X133541750Y-108993746D02*
G01*
X133572682Y-109117379D01*
X133599547Y-109220374D01*
X133620015Y-109294130D01*
X133631756Y-109330046D01*
X133633386Y-109332071D01*
X133642453Y-109306165D01*
X133662713Y-109240400D01*
X133691432Y-109143874D01*
X133725877Y-109025689D01*
X133736975Y-108987175D01*
X133833891Y-108649951D01*
X133969153Y-108649951D01*
X134044334Y-108653739D01*
X134093445Y-108663479D01*
X134104415Y-108672253D01*
X134096958Y-108702177D01*
X134076123Y-108773010D01*
X134044221Y-108877238D01*
X134003559Y-109007345D01*
X133956446Y-109155816D01*
X133942187Y-109200360D01*
X133779958Y-109706163D01*
X133638310Y-109713750D01*
X133585326Y-109717946D01*
X133546830Y-109719461D01*
X133518619Y-109711588D01*
X133496489Y-109687622D01*
X133476233Y-109640855D01*
X133453649Y-109564582D01*
X133424531Y-109452096D01*
X133390218Y-109318037D01*
X133362717Y-109216996D01*
X133338592Y-109137659D01*
X133321242Y-109090746D01*
X133315584Y-109082616D01*
X133303701Y-109105509D01*
X133283315Y-109166832D01*
X133257930Y-109255551D01*
X133244824Y-109305311D01*
X133215567Y-109418547D01*
X133187740Y-109524790D01*
X133166132Y-109605797D01*
X133161303Y-109623448D01*
X133134889Y-109718889D01*
X132995306Y-109718889D01*
X132902813Y-109713033D01*
X132851832Y-109696333D01*
X132844501Y-109687075D01*
X132828303Y-109638441D01*
X132801391Y-109554689D01*
X132766500Y-109444598D01*
X132726364Y-109316951D01*
X132683717Y-109180530D01*
X132641293Y-109044115D01*
X132601827Y-108916487D01*
X132568053Y-108806429D01*
X132542706Y-108722721D01*
X132528519Y-108674145D01*
X132526460Y-108665659D01*
X132549441Y-108656929D01*
X132608538Y-108651226D01*
X132661805Y-108649951D01*
X132797150Y-108649951D01*
X132895500Y-108998502D01*
X132993850Y-109347054D01*
X133175762Y-108662676D01*
X133316274Y-108655213D01*
X133456785Y-108647749D01*
X133541750Y-108993746D01*
G37*
G36*
X152180612Y-69828905D02*
G01*
X152187281Y-70787619D01*
X153943393Y-68872131D01*
X155132853Y-68870191D01*
X154639927Y-69380634D01*
X154489237Y-69536838D01*
X154330210Y-69701967D01*
X154172208Y-69866279D01*
X154024590Y-70020035D01*
X153896720Y-70153494D01*
X153826593Y-70226876D01*
X153506186Y-70562676D01*
X154343058Y-71847947D01*
X154493618Y-72079271D01*
X154636310Y-72298687D01*
X154768639Y-72502344D01*
X154888109Y-72686396D01*
X154992225Y-72846993D01*
X155078492Y-72980287D01*
X155144417Y-73082429D01*
X155187502Y-73149572D01*
X155205192Y-73177756D01*
X155210600Y-73192178D01*
X155204386Y-73203106D01*
X155180677Y-73211023D01*
X155133600Y-73216410D01*
X155057282Y-73219749D01*
X154945849Y-73221520D01*
X154793428Y-73222205D01*
X154661718Y-73222295D01*
X154092982Y-73222295D01*
X153496951Y-72204090D01*
X153375588Y-71997424D01*
X153261900Y-71805098D01*
X153158480Y-71631406D01*
X153067918Y-71480641D01*
X152992807Y-71357097D01*
X152935738Y-71265066D01*
X152899302Y-71208843D01*
X152886264Y-71192417D01*
X152864822Y-71211886D01*
X152813666Y-71262313D01*
X152738426Y-71338029D01*
X152644734Y-71433361D01*
X152538218Y-71542639D01*
X152523082Y-71558234D01*
X152174556Y-71917520D01*
X152174556Y-73222295D01*
X151309225Y-73222295D01*
X151309225Y-68870191D01*
X152173944Y-68870191D01*
X152180612Y-69828905D01*
G37*
G36*
X167973902Y-69232867D02*
G01*
X167966840Y-69595542D01*
X167324205Y-69602342D01*
X166681570Y-69609141D01*
X166681570Y-73222295D01*
X165790788Y-73222295D01*
X165790788Y-69609141D01*
X165148153Y-69602342D01*
X164505518Y-69595542D01*
X164498456Y-69232867D01*
X164491395Y-68870191D01*
X167980963Y-68870191D01*
X167973902Y-69232867D01*
G37*
G36*
X147807397Y-108867917D02*
G01*
X147895531Y-108755153D01*
X148010664Y-108675328D01*
X148148718Y-108633988D01*
X148272802Y-108632338D01*
X148429090Y-108669999D01*
X148553539Y-108747326D01*
X148645981Y-108864136D01*
X148706248Y-109020245D01*
X148726193Y-109127155D01*
X148743461Y-109260772D01*
X148026059Y-109260772D01*
X148026059Y-109322980D01*
X148048692Y-109400074D01*
X148106957Y-109470975D01*
X148186403Y-109520400D01*
X148222918Y-109531138D01*
X148282301Y-109535351D01*
X148329886Y-109514341D01*
X148380477Y-109466407D01*
X148429135Y-109418986D01*
X148471944Y-109397924D01*
X148530171Y-109396607D01*
X148584470Y-109402954D01*
X148657427Y-109415894D01*
X148704095Y-109430438D01*
X148713233Y-109438444D01*
X148700308Y-109469492D01*
X148668073Y-109524379D01*
X148655763Y-109543331D01*
X148563231Y-109639249D01*
X148439910Y-109705401D01*
X148298294Y-109738812D01*
X148150873Y-109736510D01*
X148012280Y-109696500D01*
X147886215Y-109613826D01*
X147797366Y-109496824D01*
X147745801Y-109348413D01*
X147728452Y-109170092D01*
X147740273Y-109082616D01*
X148020541Y-109082616D01*
X148226907Y-109082616D01*
X148329537Y-109081440D01*
X148391342Y-109076372D01*
X148422377Y-109065098D01*
X148432694Y-109045307D01*
X148433273Y-109035147D01*
X148418130Y-108982689D01*
X148381595Y-108921988D01*
X148380524Y-108920617D01*
X148310496Y-108866646D01*
X148227631Y-108852642D01*
X148145398Y-108874997D01*
X148077268Y-108930100D01*
X148037110Y-109012626D01*
X148020541Y-109082616D01*
X147740273Y-109082616D01*
X147750345Y-109008078D01*
X147807397Y-108867917D01*
G37*
G36*
X155524275Y-71033518D02*
G01*
X155525528Y-70855327D01*
X155528392Y-70717380D01*
X155533832Y-70609021D01*
X155542811Y-70519597D01*
X155556291Y-70438454D01*
X155575236Y-70354937D01*
X155591169Y-70293458D01*
X155698865Y-69977053D01*
X155843344Y-69694330D01*
X156022866Y-69446893D01*
X156235693Y-69236347D01*
X156480085Y-69064298D01*
X156754305Y-68932352D01*
X157056613Y-68842114D01*
X157189981Y-68817278D01*
X157343876Y-68801607D01*
X157526368Y-68795947D01*
X157722567Y-68799592D01*
X157917581Y-68811833D01*
X158096520Y-68831962D01*
X158244493Y-68859272D01*
X158282076Y-68869181D01*
X158582766Y-68980841D01*
X158850920Y-69130810D01*
X159085492Y-69317404D01*
X159285439Y-69538942D01*
X159449717Y-69793741D01*
X159577281Y-70080120D01*
X159667088Y-70396396D01*
X159718093Y-70740887D01*
X159729252Y-71111911D01*
X159726304Y-71195900D01*
X159695327Y-71534016D01*
X159634263Y-71837186D01*
X159541154Y-72112886D01*
X159423218Y-72352707D01*
X159340596Y-72474660D01*
X159227929Y-72610308D01*
X159098186Y-72746126D01*
X158964335Y-72868587D01*
X158839344Y-72964167D01*
X158832790Y-72968503D01*
X158597886Y-73095445D01*
X158330392Y-73193059D01*
X158040659Y-73259354D01*
X157739035Y-73292337D01*
X157435871Y-73290016D01*
X157260001Y-73271212D01*
X156932122Y-73200096D01*
X156633886Y-73088049D01*
X156366803Y-72936430D01*
X156132381Y-72746597D01*
X155932128Y-72519907D01*
X155767553Y-72257718D01*
X155640164Y-71961389D01*
X155579954Y-71758869D01*
X155559310Y-71670913D01*
X155544277Y-71588788D01*
X155534046Y-71501952D01*
X155527809Y-71399865D01*
X155524756Y-71271986D01*
X155524351Y-71173774D01*
X156429567Y-71173774D01*
X156439686Y-71365478D01*
X156464083Y-71531791D01*
X156504798Y-71684953D01*
X156563867Y-71837202D01*
X156589671Y-71893417D01*
X156709001Y-72089688D01*
X156864023Y-72257774D01*
X157046921Y-72391226D01*
X157249880Y-72483595D01*
X157333415Y-72507239D01*
X157469090Y-72526724D01*
X157630048Y-72531211D01*
X157793069Y-72521145D01*
X157934932Y-72496970D01*
X157940201Y-72495621D01*
X158155895Y-72414179D01*
X158345433Y-72290032D01*
X158506909Y-72125230D01*
X158638416Y-71921821D01*
X158738048Y-71681856D01*
X158757623Y-71616853D01*
X158775763Y-71540615D01*
X158788594Y-71455302D01*
X158796852Y-71350933D01*
X158801273Y-71217525D01*
X158802596Y-71045095D01*
X158802560Y-71008067D01*
X158801680Y-70842639D01*
X158799056Y-70717441D01*
X158793579Y-70621806D01*
X158784141Y-70545066D01*
X158769637Y-70476554D01*
X158748957Y-70405603D01*
X158735857Y-70365586D01*
X158640004Y-70134967D01*
X158519079Y-69946263D01*
X158369599Y-69795290D01*
X158188080Y-69677867D01*
X158145932Y-69657250D01*
X157922475Y-69578497D01*
X157692776Y-69544073D01*
X157463979Y-69552204D01*
X157243230Y-69601121D01*
X157037673Y-69689052D01*
X156854454Y-69814225D01*
X156700717Y-69974869D01*
X156664976Y-70024410D01*
X156578774Y-70173104D01*
X156514565Y-70335644D01*
X156469992Y-70521329D01*
X156442697Y-70739455D01*
X156431691Y-70944440D01*
X156429567Y-71173774D01*
X155524351Y-71173774D01*
X155524078Y-71107774D01*
X155524275Y-71033518D01*
G37*
G36*
X136290105Y-108804764D02*
G01*
X136394477Y-108704892D01*
X136526130Y-108645478D01*
X136681844Y-108629304D01*
X136733380Y-108633372D01*
X136884764Y-108673704D01*
X137005901Y-108754529D01*
X137095710Y-108874626D01*
X137153114Y-109032776D01*
X137169500Y-109127155D01*
X137185728Y-109260772D01*
X136471349Y-109260772D01*
X136471349Y-109322980D01*
X136492950Y-109410471D01*
X136549070Y-109476145D01*
X136626684Y-109515351D01*
X136712766Y-109523441D01*
X136794294Y-109495763D01*
X136840096Y-109454627D01*
X136879543Y-109411806D01*
X136919561Y-109394590D01*
X136980695Y-109396754D01*
X137015138Y-109401572D01*
X137087672Y-109415886D01*
X137136135Y-109431866D01*
X137145681Y-109438740D01*
X137142483Y-109477245D01*
X137107785Y-109533607D01*
X137051623Y-109596258D01*
X136984033Y-109653629D01*
X136930230Y-109687075D01*
X136796941Y-109730555D01*
X136644862Y-109742251D01*
X136496140Y-109720630D01*
X136486460Y-109717838D01*
X136375957Y-109659592D01*
X136284482Y-109562145D01*
X136217044Y-109435229D01*
X136178649Y-109288575D01*
X136174307Y-109131915D01*
X136176092Y-109114749D01*
X136195692Y-109030557D01*
X136471349Y-109030557D01*
X136475338Y-109056473D01*
X136494151Y-109072002D01*
X136538056Y-109079771D01*
X136617320Y-109082404D01*
X136674957Y-109082616D01*
X136776769Y-109081412D01*
X136837819Y-109076226D01*
X136868221Y-109064701D01*
X136878089Y-109044480D01*
X136878564Y-109035147D01*
X136855662Y-108957666D01*
X136797136Y-108893572D01*
X136718255Y-108857165D01*
X136684678Y-108853558D01*
X136601325Y-108872494D01*
X136528365Y-108920851D01*
X136481080Y-108985948D01*
X136471349Y-109030557D01*
X136195692Y-109030557D01*
X136216237Y-108942310D01*
X136290105Y-108804764D01*
G37*
G36*
X139640786Y-108631908D02*
G01*
X139800790Y-108667788D01*
X139924686Y-108738118D01*
X140011112Y-108841924D01*
X140044779Y-108921034D01*
X140049895Y-108953680D01*
X140032306Y-108973134D01*
X139981244Y-108986237D01*
X139930115Y-108993890D01*
X139851307Y-109002521D01*
X139803537Y-108996680D01*
X139767646Y-108970320D01*
X139736472Y-108932777D01*
X139660920Y-108868654D01*
X139577669Y-108849175D01*
X139496351Y-108871123D01*
X139426595Y-108931281D01*
X139378034Y-109026431D01*
X139370389Y-109055065D01*
X139355753Y-109193559D01*
X139373717Y-109316686D01*
X139420338Y-109416530D01*
X139491674Y-109485178D01*
X139583785Y-109514713D01*
X139599576Y-109515281D01*
X139660396Y-109497050D01*
X139722443Y-109452718D01*
X139767760Y-109397824D01*
X139779967Y-109359169D01*
X139784992Y-109329390D01*
X139808650Y-109317846D01*
X139863818Y-109321014D01*
X139900858Y-109326083D01*
X139975891Y-109338555D01*
X140028694Y-109350253D01*
X140040838Y-109354595D01*
X140061799Y-109391691D01*
X140049979Y-109450589D01*
X140012202Y-109521117D01*
X139955292Y-109593105D01*
X139886076Y-109656380D01*
X139811378Y-109700770D01*
X139807497Y-109702362D01*
X139692617Y-109732218D01*
X139562009Y-109741908D01*
X139437994Y-109731138D01*
X139360027Y-109708266D01*
X139238085Y-109627007D01*
X139146463Y-109508746D01*
X139088593Y-109359703D01*
X139067906Y-109186099D01*
X139067900Y-109178874D01*
X139089047Y-109003537D01*
X139148515Y-108857258D01*
X139242328Y-108743836D01*
X139366508Y-108667068D01*
X139517076Y-108630753D01*
X139640786Y-108631908D01*
G37*
G36*
X138838283Y-109718889D02*
G01*
X138558323Y-109718889D01*
X138558323Y-108649951D01*
X138838283Y-108649951D01*
X138838283Y-109718889D01*
G37*
G36*
X142770511Y-108998717D02*
G01*
X142868921Y-109347484D01*
X142953128Y-109030531D01*
X142984904Y-108908611D01*
X143011221Y-108803232D01*
X143029557Y-108724813D01*
X143037393Y-108683774D01*
X143037508Y-108681764D01*
X143059563Y-108661458D01*
X143127320Y-108651366D01*
X143184979Y-108649951D01*
X143332276Y-108649951D01*
X143416970Y-108994847D01*
X143447852Y-109118266D01*
X143474665Y-109221032D01*
X143495076Y-109294529D01*
X143506750Y-109330144D01*
X143508336Y-109332071D01*
X143517403Y-109306165D01*
X143537662Y-109240400D01*
X143566381Y-109143874D01*
X143600827Y-109025689D01*
X143611925Y-108987175D01*
X143708841Y-108649951D01*
X143844103Y-108649951D01*
X143919287Y-108653498D01*
X143968398Y-108662620D01*
X143979365Y-108670836D01*
X143971896Y-108700308D01*
X143951028Y-108770724D01*
X143919068Y-108874607D01*
X143878323Y-109004485D01*
X143831102Y-109152881D01*
X143816324Y-109198942D01*
X143653282Y-109706163D01*
X143371612Y-109721337D01*
X143344860Y-109624672D01*
X143326090Y-109555002D01*
X143299595Y-109454351D01*
X143270195Y-109341069D01*
X143261001Y-109305311D01*
X143234468Y-109207257D01*
X143211253Y-109131228D01*
X143194853Y-109088259D01*
X143190387Y-109082616D01*
X143178570Y-109105508D01*
X143158233Y-109166830D01*
X143132877Y-109255546D01*
X143119773Y-109305311D01*
X143090517Y-109418547D01*
X143062690Y-109524790D01*
X143041082Y-109605797D01*
X143036253Y-109623448D01*
X143009839Y-109718889D01*
X142870256Y-109718889D01*
X142777763Y-109713033D01*
X142726782Y-109696333D01*
X142719450Y-109687075D01*
X142703252Y-109638441D01*
X142676341Y-109554689D01*
X142641450Y-109444598D01*
X142601314Y-109316951D01*
X142558667Y-109180530D01*
X142516243Y-109044115D01*
X142476777Y-108916487D01*
X142443003Y-108806429D01*
X142417656Y-108722721D01*
X142403469Y-108674145D01*
X142401409Y-108665659D01*
X142424391Y-108656929D01*
X142483488Y-108651226D01*
X142536755Y-108649951D01*
X142672100Y-108649951D01*
X142770511Y-108998717D01*
G37*
G36*
X144278413Y-108247829D02*
G01*
X144424756Y-108255462D01*
X144432513Y-108376354D01*
X144440271Y-108497245D01*
X144132071Y-108497245D01*
X144132071Y-108240196D01*
X144278413Y-108247829D01*
G37*
G36*
X142503213Y-108497245D02*
G01*
X142070548Y-108497245D01*
X142070548Y-109718889D01*
X141765137Y-109718889D01*
X141765137Y-108499227D01*
X141542442Y-108491873D01*
X141319746Y-108484520D01*
X141304232Y-108242736D01*
X142503213Y-108242736D01*
X142503213Y-108497245D01*
G37*
G36*
X149237074Y-108318296D02*
G01*
X149246512Y-108370902D01*
X149247702Y-108467616D01*
X149247702Y-108649951D01*
X149451309Y-108649951D01*
X149451309Y-108879009D01*
X149247702Y-108879009D01*
X149250713Y-109114430D01*
X149253894Y-109228576D01*
X149259808Y-109331725D01*
X149267391Y-109407277D01*
X149270688Y-109426203D01*
X149289571Y-109479467D01*
X149325615Y-109497179D01*
X149367277Y-109496395D01*
X149418641Y-109496636D01*
X149445185Y-109516853D01*
X149460301Y-109570447D01*
X149464359Y-109593551D01*
X149471787Y-109661742D01*
X149469122Y-109706475D01*
X149466026Y-109712656D01*
X149428444Y-109725447D01*
X149357558Y-109733354D01*
X149270760Y-109736073D01*
X149185439Y-109733299D01*
X149118987Y-109724729D01*
X149100229Y-109719052D01*
X149049407Y-109683722D01*
X149012294Y-109623149D01*
X148987351Y-109531287D01*
X148973044Y-109402094D01*
X148967834Y-109229524D01*
X148967742Y-109197963D01*
X148967742Y-108879009D01*
X148904115Y-108879009D01*
X148864852Y-108874262D01*
X148846249Y-108850929D01*
X148840731Y-108795371D01*
X148840488Y-108764480D01*
X148843125Y-108693806D01*
X148856088Y-108660322D01*
X148886953Y-108650388D01*
X148904115Y-108649951D01*
X148945156Y-108644371D01*
X148963364Y-108618079D01*
X148967722Y-108556750D01*
X148967742Y-108548466D01*
X148972687Y-108482805D01*
X148995519Y-108438577D01*
X149048231Y-108396479D01*
X149071483Y-108381493D01*
X149158339Y-108327955D01*
X149210609Y-108305435D01*
X149237074Y-108318296D01*
G37*
M02*
